<svg xmlns="http://www.w3.org/2000/svg" xmlns:xlink="http://www.w3.org/1999/xlink" viewBox="0 0 168.34 138.72"><defs><style>.cls-1{isolation:isolate;}.cls-2{fill:#a9a9ab;}.cls-3{fill:#000002;}.cls-4{fill:#040406;}.cls-5{fill:#414143;}.cls-6{fill:#2b2b2d;}.cls-7{fill:#161618;}.cls-8{fill:#d5d6d5;}.cls-9{fill:#adafae;}.cls-10{fill:#7e8180;}.cls-11{fill:#656566;}.cls-12{fill:#59595b;}.cls-13,.cls-14,.cls-19,.cls-25,.cls-40{mix-blend-mode:screen;}.cls-13{fill:url(#Áåçûìÿííûé_ãðàäèåíò_251);}.cls-14{fill:url(#Áåçûìÿííûé_ãðàäèåíò_251-2);}.cls-15{fill:#f6b100;}.cls-16{fill:#d3cabb;}.cls-17{fill:#fff;}.cls-18{fill:#9e9382;}.cls-19{fill:#616060;}.cls-20{fill:#6a6455;}.cls-21{fill:#363638;}.cls-22{fill:#ffd15a;}.cls-23{fill:#ffad2e;}.cls-24{fill:#e18802;}.cls-25{fill:url(#Áåçûìÿííûé_ãðàäèåíò_374);}.cls-26,.cls-27,.cls-28,.cls-29{mix-blend-mode:multiply;}.cls-26{fill:url(#Áåçûìÿííûé_ãðàäèåíò_108);}.cls-27{fill:url(#Áåçûìÿííûé_ãðàäèåíò_108-2);}.cls-28{fill:url(#Áåçûìÿííûé_ãðàäèåíò_108-3);}.cls-30{fill:#e0c700;}.cls-31{fill:#909092;}.cls-32{fill:#f63d00;}.cls-33{fill:#b02300;}.cls-34{fill:#171719;}.cls-35{fill:#1d1d1f;}.cls-36{fill:#fef7e5;}.cls-37{fill:#fe9529;}.cls-38{fill:#0c0c0e;}.cls-39{fill:#7a6457;}.cls-40{fill:#2f2e2e;}.cls-41{fill:#ffc03b;}.cls-42{fill:#7f7f81;}.cls-43{fill:#373739;}.cls-44{fill:#131315;}.cls-45{fill:#bebb7f;}.cls-46{fill:#fcfcf9;}.cls-47{fill:#faeabd;}.cls-48{fill:#f4cc5e;}.cls-49{fill:#f0960a;}.cls-50{fill:#ffd54d;}.cls-51{fill:#ffc54d;}.cls-52{fill:#c47000;}.cls-53{fill:#ffcf6d;}.cls-54{fill:#eea129;}.cls-55{fill:#ffedb1;}.cls-56{fill:#5e5e5f;}</style><linearGradient id="Áåçûìÿííûé_ãðàäèåíò_251" x1="364.37" y1="522.69" x2="359.39" y2="537.05" gradientUnits="userSpaceOnUse"><stop offset="0.12"/><stop offset="0.21" stop-color="#181d25"/><stop offset="0.35" stop-color="#364153"/><stop offset="0.48" stop-color="#4f5f7a"/><stop offset="0.61" stop-color="#637698"/><stop offset="0.74" stop-color="#7187ae"/><stop offset="0.87" stop-color="#7991bb"/><stop offset="0.98" stop-color="#7c94bf"/></linearGradient><linearGradient id="Áåçûìÿííûé_ãðàäèåíò_251-2" x1="436.69" y1="564.4" x2="431.72" y2="578.76" xlink:href="#Áåçûìÿííûé_ãðàäèåíò_251"/><linearGradient id="Áåçûìÿííûé_ãðàäèåíò_374" x1="416.8" y1="475.18" x2="384.33" y2="545.15" gradientUnits="userSpaceOnUse"><stop offset="0.12"/><stop offset="0.38" stop-color="#512c20"/><stop offset="0.68" stop-color="#a65a41"/><stop offset="0.88" stop-color="#db7756"/><stop offset="0.98" stop-color="#f0825e"/></linearGradient><linearGradient id="Áåçûìÿííûé_ãðàäèåíò_108" x1="389.67" y1="552.09" x2="428.32" y2="467.03" gradientUnits="userSpaceOnUse"><stop offset="0" stop-color="#fff"/><stop offset="0.98" stop-color="#c28a4e"/></linearGradient><linearGradient id="Áåçûìÿííûé_ãðàäèåíò_108-2" x1="396" y1="552.16" x2="401.42" y2="542.67" xlink:href="#Áåçûìÿííûé_ãðàäèåíò_108"/><linearGradient id="Áåçûìÿííûé_ãðàäèåíò_108-3" x1="398.59" y1="550.64" x2="400.49" y2="547.32" xlink:href="#Áåçûìÿííûé_ãðàäèåíò_108"/></defs><title>17920 [Converted]</title><g class="cls-1"><g id="Layer_1" data-name="Layer 1"><path class="cls-2" d="M488.32,556.37s4.62,3.48,4.25,5.32c-1.92,9.43-31.29,20.39-45.1,22.61-1.39.22-49.44-27.15-84.07-47.74-21.73-12.93-38.61-24.13-38.61-24.83,0-1.83,44.63-26,44.63-26Z" transform="translate(-324.79 -445.58)"/><path class="cls-3" d="M425.39,564.28l5.48-3.5,7.88-5.7s-4.77-6.37-6.37-5.73-7.39,7.34-7.39,7.34Z" transform="translate(-324.79 -445.58)"/><path class="cls-3" d="M353.61,523.37l5.48-3.5,7.87-5.71s-4.77-6.36-6.37-5.73-7.39,7.35-7.39,7.35Z" transform="translate(-324.79 -445.58)"/><path class="cls-4" d="M372.87,512.46c-2.14-1.23-4.09-1.45-5.59-.83-1.8.76-10.17,4.91-10.17,4.91L369,537.39s8.24-3.87,9.77-4.66,2.64-2.77,2.64-5.56C381.39,521.77,377.58,515.18,372.87,512.46Z" transform="translate(-324.79 -445.58)"/><ellipse class="cls-5" cx="363.4" cy="526.77" rx="6.94" ry="12.02" transform="translate(-540.97 -190.17) rotate(-30.31)"/><ellipse class="cls-6" cx="363.07" cy="526.94" rx="6.44" ry="11.15" transform="translate(-541.1 -190.31) rotate(-30.31)"/><ellipse class="cls-7" cx="363.24" cy="526.79" rx="4.8" ry="8.31" transform="translate(-541 -190.24) rotate(-30.31)"/><path class="cls-8" d="M358.11,523.72a11.66,11.66,0,0,0,5.29,9.12c2.92,1.68,5.28.33,5.28-3a11.62,11.62,0,0,0-5.28-9.11C360.48,519,358.11,520.37,358.11,523.72Z" transform="translate(-324.79 -445.58)"/><path class="cls-9" d="M358.56,524a10.67,10.67,0,0,0,4.84,8.35c2.67,1.54,4.84.3,4.84-2.76a10.67,10.67,0,0,0-4.84-8.35C360.72,519.67,358.56,520.91,358.56,524Z" transform="translate(-324.79 -445.58)"/><path class="cls-10" d="M360,524.82a7.45,7.45,0,0,0,3.38,5.83c1.86,1.07,3.38.21,3.38-1.93a7.44,7.44,0,0,0-3.38-5.82C361.53,521.82,360,522.68,360,524.82Z" transform="translate(-324.79 -445.58)"/><path class="cls-10" d="M364.08,532.1a10.64,10.64,0,0,1-4.84-8.35,3.28,3.28,0,0,1,1.51-3.15c-1.32.23-2.19,1.43-2.19,3.38a10.67,10.67,0,0,0,4.84,8.35,3.48,3.48,0,0,0,3.32.39A4,4,0,0,1,364.08,532.1Z" transform="translate(-324.79 -445.58)"/><path class="cls-10" d="M363.4,521.22c-1.54-.89-2.91-.86-3.8-.08a3.52,3.52,0,0,1,3.29.41,10.64,10.64,0,0,1,4.84,8.35,3.66,3.66,0,0,1-1,2.84,3.28,3.28,0,0,0,1.55-3.17A10.67,10.67,0,0,0,363.4,521.22Z" transform="translate(-324.79 -445.58)"/><path class="cls-11" d="M365.8,524.89a1.16,1.16,0,0,0,.54.92c.29.17.53,0,.53-.31a1.2,1.2,0,0,0-.53-.92C366,524.41,365.8,524.55,365.8,524.89Z" transform="translate(-324.79 -445.58)"/><path class="cls-11" d="M360.05,528.29a1.16,1.16,0,0,0,.54.92c.29.17.53,0,.53-.3a1.18,1.18,0,0,0-.53-.92C360.29,527.82,360.05,528,360.05,528.29Z" transform="translate(-324.79 -445.58)"/><path class="cls-11" d="M359,525.55a1.16,1.16,0,0,0,.54.92c.29.17.53,0,.53-.3a1.16,1.16,0,0,0-.51-.92C359.22,525.08,359,525.21,359,525.55Z" transform="translate(-324.79 -445.58)"/><path class="cls-11" d="M359,523a1.15,1.15,0,0,0,.53.92c.29.17.53,0,.53-.3a1.2,1.2,0,0,0-.53-.93C359.22,522.48,359,522.62,359,523Z" transform="translate(-324.79 -445.58)"/><path class="cls-11" d="M360.74,521.34a1.2,1.2,0,0,0,.53.92c.3.17.54,0,.54-.31a1.16,1.16,0,0,0-.54-.92C361,520.86,360.74,521,360.74,521.34Z" transform="translate(-324.79 -445.58)"/><path class="cls-11" d="M363.67,522.32a1.18,1.18,0,0,0,.53.92c.3.17.54,0,.54-.31a1.16,1.16,0,0,0-.54-.92C363.91,521.84,363.67,522,363.67,522.32Z" transform="translate(-324.79 -445.58)"/><path class="cls-11" d="M366.82,527.82a1.16,1.16,0,0,0,.54.92c.29.17.53,0,.53-.31a1.2,1.2,0,0,0-.53-.92C367.06,527.34,366.82,527.48,366.82,527.82Z" transform="translate(-324.79 -445.58)"/><path class="cls-11" d="M366.54,530.54a1.18,1.18,0,0,0,.53.92c.3.17.54,0,.54-.3a1.16,1.16,0,0,0-.54-.92C366.78,530.07,366.54,530.2,366.54,530.54Z" transform="translate(-324.79 -445.58)"/><path class="cls-11" d="M364.47,531.65a1.19,1.19,0,0,0,.53.93c.29.17.53,0,.53-.31a1.18,1.18,0,0,0-.53-.92C364.7,531.18,364.47,531.32,364.47,531.65Z" transform="translate(-324.79 -445.58)"/><path class="cls-11" d="M362,530.54a1.18,1.18,0,0,0,.53.92c.3.17.54,0,.54-.3a1.16,1.16,0,0,0-.54-.92C362.24,530.07,362,530.2,362,530.54Z" transform="translate(-324.79 -445.58)"/><path class="cls-8" d="M359.67,525a7.41,7.41,0,0,0,3.38,5.82c1.86,1.08,3.37.22,3.37-1.92a7.46,7.46,0,0,0-3.37-5.83C361.18,522,359.67,522.85,359.67,525Z" transform="translate(-324.79 -445.58)"/><path class="cls-6" d="M360.19,525.29a6.31,6.31,0,0,0,2.86,4.93c1.57.91,2.85.18,2.85-1.63a6.31,6.31,0,0,0-2.85-4.93C361.47,522.75,360.19,523.48,360.19,525.29Z" transform="translate(-324.79 -445.58)"/><path class="cls-12" d="M360.44,525.69a5.42,5.42,0,0,0,2.45,4.23c1.36.78,2.45.15,2.45-1.4a5.39,5.39,0,0,0-2.45-4.23C361.54,523.51,360.44,524.13,360.44,525.69Z" transform="translate(-324.79 -445.58)"/><path class="cls-13" d="M363.05,524.52s-1.51-1.08-2.23.1a1.89,1.89,0,0,0-.23,1.24,7.49,7.49,0,0,0,2.05,2,20.56,20.56,0,0,0,2.36,1.38,3,3,0,0,0-.19-2.52C364,524.9,363.05,524.52,363.05,524.52Z" transform="translate(-324.79 -445.58)"/><path class="cls-4" d="M445.19,554.17c-2.14-1.23-4.09-1.45-5.59-.83-1.8.76-10.17,4.91-10.17,4.91L441.3,579.1s8.25-3.87,9.78-4.66,2.64-2.77,2.64-5.56C453.72,563.48,449.9,556.89,445.19,554.17Z" transform="translate(-324.79 -445.58)"/><ellipse class="cls-5" cx="435.72" cy="568.48" rx="6.94" ry="12.02" transform="translate(-552.13 -147.96) rotate(-30.31)"/><ellipse class="cls-6" cx="435.39" cy="568.65" rx="6.44" ry="11.15" transform="translate(-552.26 -148.11) rotate(-30.31)"/><path class="cls-7" d="M429.67,565.1a13,13,0,0,0,5.89,10.16c3.25,1.88,5.89.38,5.89-3.36a13,13,0,0,0-5.89-10.16C432.3,559.86,429.67,561.36,429.67,565.1Z" transform="translate(-324.79 -445.58)"/><path class="cls-8" d="M430.43,565.43a11.66,11.66,0,0,0,5.29,9.12c2.92,1.68,5.29.33,5.29-3a11.63,11.63,0,0,0-5.29-9.11C432.8,560.73,430.43,562.08,430.43,565.43Z" transform="translate(-324.79 -445.58)"/><path class="cls-9" d="M430.88,565.69a10.7,10.7,0,0,0,4.84,8.35c2.67,1.54,4.84.3,4.84-2.76a10.67,10.67,0,0,0-4.84-8.35C433.05,561.38,430.88,562.62,430.88,565.69Z" transform="translate(-324.79 -445.58)"/><path class="cls-10" d="M432.34,566.53a7.47,7.47,0,0,0,3.38,5.83c1.87,1.07,3.38.21,3.38-1.93a7.41,7.41,0,0,0-3.38-5.82C433.86,563.53,432.34,564.39,432.34,566.53Z" transform="translate(-324.79 -445.58)"/><path class="cls-10" d="M436.4,573.81a10.67,10.67,0,0,1-4.84-8.35,3.28,3.28,0,0,1,1.51-3.15c-1.32.23-2.19,1.43-2.19,3.38a10.7,10.7,0,0,0,4.84,8.35,3.5,3.5,0,0,0,3.33.39A4,4,0,0,1,436.4,573.81Z" transform="translate(-324.79 -445.58)"/><path class="cls-10" d="M435.72,562.93c-1.54-.89-2.91-.86-3.79-.08a3.52,3.52,0,0,1,3.29.41,10.67,10.67,0,0,1,4.84,8.35,3.66,3.66,0,0,1-1.05,2.84,3.28,3.28,0,0,0,1.55-3.17A10.67,10.67,0,0,0,435.72,562.93Z" transform="translate(-324.79 -445.58)"/><path class="cls-11" d="M438.13,566.6a1.18,1.18,0,0,0,.53.92c.3.17.53,0,.53-.31a1.17,1.17,0,0,0-.53-.92C438.37,566.12,438.13,566.26,438.13,566.6Z" transform="translate(-324.79 -445.58)"/><path class="cls-11" d="M432.38,570a1.18,1.18,0,0,0,.53.92c.29.17.53,0,.53-.3a1.18,1.18,0,0,0-.53-.92C432.62,569.53,432.38,569.66,432.38,570Z" transform="translate(-324.79 -445.58)"/><path class="cls-11" d="M431.29,567.26a1.18,1.18,0,0,0,.53.92c.3.17.54,0,.54-.3a1.14,1.14,0,0,0-.52-.92C431.55,566.79,431.29,566.92,431.29,567.26Z" transform="translate(-324.79 -445.58)"/><path class="cls-11" d="M431.31,564.67a1.18,1.18,0,0,0,.53.92c.3.17.54,0,.54-.3a1.18,1.18,0,0,0-.54-.93C431.55,564.19,431.31,564.33,431.31,564.67Z" transform="translate(-324.79 -445.58)"/><path class="cls-11" d="M433.06,563.05a1.18,1.18,0,0,0,.54.92c.29.17.53,0,.53-.31a1.18,1.18,0,0,0-.53-.92C433.3,562.57,433.06,562.71,433.06,563.05Z" transform="translate(-324.79 -445.58)"/><path class="cls-11" d="M436,564a1.16,1.16,0,0,0,.54.92c.29.17.53,0,.53-.31a1.2,1.2,0,0,0-.53-.92C436.23,563.55,436,563.69,436,564Z" transform="translate(-324.79 -445.58)"/><path class="cls-11" d="M439.15,569.53a1.18,1.18,0,0,0,.53.92c.3.17.53,0,.53-.31a1.17,1.17,0,0,0-.53-.92C439.39,569.05,439.15,569.19,439.15,569.53Z" transform="translate(-324.79 -445.58)"/><path class="cls-11" d="M438.86,572.25a1.16,1.16,0,0,0,.54.92c.29.17.53,0,.53-.3a1.18,1.18,0,0,0-.53-.92C439.1,571.78,438.86,571.91,438.86,572.25Z" transform="translate(-324.79 -445.58)"/><path class="cls-11" d="M436.79,573.36a1.2,1.2,0,0,0,.53.93c.3.17.54,0,.54-.31a1.16,1.16,0,0,0-.54-.92C437,572.89,436.79,573,436.79,573.36Z" transform="translate(-324.79 -445.58)"/><path class="cls-11" d="M434.32,572.25a1.18,1.18,0,0,0,.53.92c.3.17.54,0,.54-.3a1.16,1.16,0,0,0-.54-.92C434.56,571.78,434.32,571.91,434.32,572.25Z" transform="translate(-324.79 -445.58)"/><path class="cls-8" d="M432,566.7a7.41,7.41,0,0,0,3.38,5.82c1.86,1.08,3.38.22,3.38-1.92a7.47,7.47,0,0,0-3.38-5.83C433.5,563.7,432,564.56,432,566.7Z" transform="translate(-324.79 -445.58)"/><ellipse class="cls-6" cx="435.37" cy="568.65" rx="2.33" ry="4.03" transform="translate(-552.26 -148.13) rotate(-30.31)"/><ellipse class="cls-12" cx="435.21" cy="568.81" rx="2" ry="3.46" transform="translate(-552.37 -148.18) rotate(-30.31)"/><path class="cls-14" d="M435.37,566.23s-1.51-1.08-2.23.1a2,2,0,0,0-.23,1.24,7.68,7.68,0,0,0,2,2,20.56,20.56,0,0,0,2.36,1.38,3,3,0,0,0-.18-2.52A4.23,4.23,0,0,0,435.37,566.23Z" transform="translate(-324.79 -445.58)"/><path class="cls-15" d="M486.86,542.36c.2.28.38.56.55.85a10.82,10.82,0,0,1,1.06,2.36c.46-.82.94-1.63,1.32-2.49.31-.7.57-1.41.86-2.11h0l-.32-10.07L482.85,521l-.74-.45c-.74-.46-2.2-1.27-2.2-1.27s-10.28-19.11-12.15-22.13-3.74-7.23-8.85-10.79-10.24-6.78-10.24-6.78c-3.54-2.15-35.17-20.36-52-30h0l-5.95-3.43a3,3,0,0,0-1.86-.47l-.09,0a1.67,1.67,0,0,0-1,.59,2.32,2.32,0,0,0-.49,1.06l-2.58,3.58-.87,18.59L384,482.8l-1.23.25s.41,5.48.7,6.82c0,.19.09.36.13.54a6.08,6.08,0,0,0,2.33,3.35c1.67,1.29,8.47,6,8.47,6a13.08,13.08,0,0,1,.37-2.39c.76-3.07,3.06-7.59,9.94-3.62a18.85,18.85,0,0,1,8.23,10.38,26.56,26.56,0,0,1,1.25,5.33,21,21,0,0,1,.2,2.64l3.3,1.46,46.47,26.82a61.76,61.76,0,0,1,6,4.12l.81-5.34a6.77,6.77,0,0,1,.38-1.46c1.49-3.86,6.22-3.52,12.47,1.37A15.18,15.18,0,0,1,486.86,542.36Z" transform="translate(-324.79 -445.58)"/><path class="cls-16" d="M479.46,517.54c-1.78,1.44-4.53,3.65-7.31,5.82-3.34,2.63-6.71,5.19-8.41,6.24-.64.4-1.47.87-2.44,1.4-1.91,1-4.36,2.29-6.95,3.58-3.79,1.87-7.89,3.83-11.11,5.35-1.25.59-2.36,1.12-3.28,1.54l-.88-.52L426.4,516.37l13.37-7.78,11-6.39,6.91-4,7.9-4.59,4.06,7Z" transform="translate(-324.79 -445.58)"/><path class="cls-17" d="M474.34,519.45l1.73-1.58s-1.8-4.14-3.92-8.12c-2.79-5.25-5.49-10.3-6.65-12.54a22.38,22.38,0,0,0-1.62-2.65l-12.79,7.38a4.36,4.36,0,0,0,1.17,1.14c1.66,1,4.5,2.85,6.31,4.21a66.52,66.52,0,0,1,7.14,6.81Z" transform="translate(-324.79 -445.58)"/><polygon class="cls-18" points="111.46 90.3 112.92 86.31 127.36 79.61 132.43 81.23 149.51 68.45 154.67 71.96 138.84 85.32 115.17 95.89 114.29 95.37 111.46 90.3"/><path class="cls-19" d="M454.35,534.58c-3.79,1.87-7.89,3.83-11.11,5.35l-3.47-31.34,11-6.39Zm15.28-34-4.06-7-7.9,4.59L461.3,531c1-.53,1.8-1,2.44-1.4,1.7-1.05,5.07-3.61,8.41-6.24Z" transform="translate(-324.79 -445.58)"/><path class="cls-20" d="M465.07,494.06l-.72.23,13.41,23.1c-3.93,3.18-12.61,10.14-15.72,12.07-4.32,2.68-16.84,8.62-23,11.49l.88.52c5.69-2.66,19.27-9.07,23.79-11.87,3.1-1.93,11-8.28,15-11.46Z" transform="translate(-324.79 -445.58)"/><path class="cls-21" d="M466.6,533.07l13.92-13.72-1.06-1.82c-3.92,3.18-12.61,10.14-15.71,12.07-4.52,2.8-18.1,9.21-23.79,11.87l2.11,1.09Z" transform="translate(-324.79 -445.58)"/><path class="cls-22" d="M465.07,494.06s-3.18,3.36-14.5,9.62c-15,8.29-24,12.12-24,12.12l-12.4-6.35-19.42-12.09-11.17-6.95-34-21.25-.77-.48,38.95-22.48a1.67,1.67,0,0,1,1-.59l.09,0a2.69,2.69,0,0,1,1.16.14,4.37,4.37,0,0,1,.7.33l5.95,3.43h0c16.81,9.67,48.44,27.88,52,30,0,0,5.13,3.23,10.24,6.78S463.2,491,465.07,494.06Z" transform="translate(-324.79 -445.58)"/><path class="cls-23" d="M458.91,486.31,416.3,510.9l9.25,5.76s9-3.83,24-12.12c11.32-6.25,16-11,16-11A22.12,22.12,0,0,0,458.91,486.31Z" transform="translate(-324.79 -445.58)"/><path class="cls-23" d="M390,445.73c-3.74,2.3-9.3,5.58-16.66,9.65-10.83,6-18.81,10.72-23.8,13.78l-.77-.48,38.95-22.48a1.67,1.67,0,0,1,1-.59l.09,0A2.69,2.69,0,0,1,390,445.73Z" transform="translate(-324.79 -445.58)"/><path class="cls-24" d="M454.39,565.57l-.4-9.42-9.05-11.09-.75-.45c-.73-.46-2.19-1.27-2.19-1.27s-10.88-21.48-12.76-24.5S426.1,514,421,510.42s-12.34-7.81-12.34-7.81c-4.19-2.55-46.26-26.76-57.93-33.47-1.67-1-3.11-.47-3.47,1.19l-1,4.49-2.46,17.68.15,13.38-.15.45s-.68,5.28-.38,6.62a6.12,6.12,0,0,0,2.46,3.89c.68.53,2.24,1.64,3.83,2.76a10.7,10.7,0,0,1,2.78-1.85c.46-.21.93-.39,1.39-.61l.37-.22a4.38,4.38,0,0,1,4.23-1.44c1.48-.46,3.47-.22,6.17,1.34a18.79,18.79,0,0,1,8.22,10.37c.14.39.27.78.38,1.16a24.87,24.87,0,0,1,1.08,6.81l3.31,1.46s43.77,25.09,46.47,26.83c.71.47,1.27.88,1.27.88v-.05a18.33,18.33,0,0,1,1-5.41c.16-.52.93-1.37,1.09-1.8,1.49-3.86,10,.18,16.26,5.07a14.55,14.55,0,0,1,3,3.13,14.43,14.43,0,0,1,1.33.58h2.69c.94,0,2.68.22,3.67-.27Z" transform="translate(-324.79 -445.58)"/><path class="cls-25" d="M422.06,535.25a33.25,33.25,0,0,0,4.54,3.92L443,547.89l8.74,6.72-7.8-9.55L441,543.34s-7-18.9-15.39-27.13-33-22.34-33-22.34l-42.9-24.73s-1.5-1.12-2.46,1c-.05.18-1,4.66-1,4.66l-2.46,17.69L396.08,522S419.9,533,422.06,535.25Z" transform="translate(-324.79 -445.58)"/><path class="cls-26" d="M453.42,565.57l-.39-9.42-10.85-7.81-16.88-8.82s-1.17-1.39-3.33-3.66-20.6-10.22-20.6-10.22l-57.56-33.13.15,13.37,8.63,11.78s1.8-5.33,9.55-2.71,10,10.41,10,10.41l58.57,34.74,2.13-2.9,6.64,1,14,9.92,2.33-1.11Z" transform="translate(-324.79 -445.58)"/><path class="cls-27" d="M426.81,557c-.53,2.05-1.42,7.24-1.42,7.24v.05s-.72-.52-1.27-.88c-2.7-1.74-46.47-26.83-46.47-26.83l-3.31-1.46a24.87,24.87,0,0,0-1.08-6.81Z" transform="translate(-324.79 -445.58)"/><path class="cls-28" d="M424.12,563.45c.55.36,1.27.88,1.27.88v-.05s.19-1.12.45-2.52l-51.66-29a20.94,20.94,0,0,1,.16,2.39l3.31,1.46S421.42,561.71,424.12,563.45Z" transform="translate(-324.79 -445.58)"/><g class="cls-29"><path class="cls-30" d="M425.42,562.53l-15.55-9V542.81l-.43-1.57L407,539.82V525.06l1.32-17.69A1.79,1.79,0,0,1,411,506c.79.49,1.88,1.17,3.35,2.11,4,2.51,8.33,5.53,10.55,8.8,1.39,2.06,4.12,7.25,6.32,11.42,1,1.9,1.9,3.61,2.54,4.77,2,3.71,4.54,9.6,4.57,9.66l0,.09.86,6.58-3.44,4.24-2.23-.84c-2.53-.95-4.32-.77-5.48.55-1.6,1.81-2.59,8.61-2.6,8.68Zm-14.89-9.37,14.37,8.3c.27-1.63,1.21-6.86,2.69-8.54,1.35-1.53,3.44-1.78,6.21-.73l1.78.67,3-3.65-.82-6.25c-.23-.54-2.59-6.05-4.52-9.56-.64-1.16-1.54-2.88-2.55-4.78-2.19-4.16-4.91-9.33-6.28-11.36-2.15-3.17-6.44-6.13-10.35-8.61l-3.35-2.11a1.13,1.13,0,0,0-1.1,0,1.12,1.12,0,0,0-.61.92l-1.32,17.67v14.35L410,540.8l.52,2Z" transform="translate(-324.79 -445.58)"/></g><path class="cls-31" d="M426.28,556.84c.41.23.27.57.93.87,1.48-3.86,6.91-3.59,13.16,1.3a16.31,16.31,0,0,1,2.93,3.74c.19.28.54.12.71.41l1.06-.72a15.77,15.77,0,0,0-6.66-6.87c-5.08-2.93-5.88-2.86-7.63-2.89S426.82,554.57,426.28,556.84Z" transform="translate(-324.79 -445.58)"/><path class="cls-32" d="M343.81,492.51s2,.74,2.28,2.51.42,12.37.42,12.37L344,505.88Z" transform="translate(-324.79 -445.58)"/><path class="cls-33" d="M345.33,494.68c.23,1.66.4,11.15.42,12.26l.76.45s-.17-10.6-.42-12.37-2.28-2.51-2.28-2.51v.05A3.07,3.07,0,0,1,345.33,494.68Z" transform="translate(-324.79 -445.58)"/><path class="cls-21" d="M493.13,545.52a38.61,38.61,0,0,1-.85,7,5.86,5.86,0,0,1-1.11,2.36s-8,7.7-11.92,10.19c-5.93,3.73-26.66,11.29-27,11.4h0l.11-1.61.63-9c.27,0,.55-.08.84-.14a18.24,18.24,0,0,0,2.06-.59s15.42-4.79,19.73-7.33c4.87-2.87,16.05-14.3,16.05-14.3l1.12-1.29Z" transform="translate(-324.79 -445.58)"/><path class="cls-6" d="M453.44,573.69c-.12.36-.24.69-.34,1a9.41,9.41,0,0,1-.83,1.76h0a1.31,1.31,0,0,1-1.47.27c-.85-.38-4.31-1.6-4.31-1.6a21.54,21.54,0,0,0-2.79-11c-.17-.29-.36-.57-.55-.85L444,562l1.7,1.17,5,2.37,3.14-.18,0,.37.14,3A17.73,17.73,0,0,1,453.44,573.69Z" transform="translate(-324.79 -445.58)"/><path class="cls-34" d="M493.13,545.52a38.61,38.61,0,0,1-.85,7,5.86,5.86,0,0,1-1.11,2.36s-8,7.7-11.92,10.19c-5.93,3.73-26.66,11.29-27,11.4h0a1.31,1.31,0,0,1-1.47.27c-.85-.38-4.31-1.6-4.31-1.6a21.54,21.54,0,0,0-2.79-11,10.85,10.85,0,0,1,3.3,6.2c.54,3.84.62,4.14.62,4.14a11.75,11.75,0,0,0,4.76.37,6.2,6.2,0,0,0,.72-.16c.2-.06.42-.13.62-.21,2.62-1.08,20.06-7.24,22.22-8.92s9.4-6.23,13.83-10.48c2.53-2.42,3-7.81,3-7.81v-5Z" transform="translate(-324.79 -445.58)"/><path class="cls-6" d="M426,557.79c.41.23,1.79-1.25,2.45-.95,1.05-1.37,5.39-1.77,11.64,3.13a14.68,14.68,0,0,1,3.09,3.29c.2.28.38.57.55.85l1.05-.72a15.7,15.7,0,0,0-6.65-6.87c-5.09-2.93-5.89-2.86-7.63-2.89S426.51,555.52,426,557.79Z" transform="translate(-324.79 -445.58)"/><path class="cls-31" d="M373.21,524a19.79,19.79,0,0,0-1-1.77c-.74-1.18-2.45-4.32-8.15-7.61s-7.7-1.05-7.7-1.05l-9.83-6.17L344,505.88l0-1.14-2,1.93s1.16,4.93,1.46,6.28a6.08,6.08,0,0,0,2.46,3.88c.89.7,3.27,2.38,5.28,3.79a18.61,18.61,0,0,1,4.69-4.8,3.5,3.5,0,0,1,3.16-.47c1.41-.26,3.25.09,5.64,1.47a18.86,18.86,0,0,1,8.23,10.37L426.66,556a4.11,4.11,0,0,1,.48-.62s0-.08.07-.12Z" transform="translate(-324.79 -445.58)"/><path class="cls-6" d="M427.05,558a3.8,3.8,0,0,1,1.37-1.17l-56-32.31a17.66,17.66,0,0,0-1-1.77c-.75-1.19-2.45-4.32-8.15-7.61s-7.71-1-7.71-1l-9.82-6.17-2.56-1.51-1.24.25s.41,5.48.71,6.82a6.12,6.12,0,0,0,2.46,3.89c1.66,1.29,8.47,6,8.47,6a13,13,0,0,1,.41-2.56c.8-3.07,3.14-7.35,9.89-3.45a18.78,18.78,0,0,1,8.23,10.37l54.22,31.32S427,558.12,427.05,558Z" transform="translate(-324.79 -445.58)"/><path class="cls-35" d="M354,520.81a13,13,0,0,0-.41,2.56s-6.81-4.7-8.47-6a6.12,6.12,0,0,1-2.46-3.89c-.3-1.34-.71-6.82-.71-6.82s.89,6.39,2.91,8.55C345.79,516.19,349.83,518.52,354,520.81Z" transform="translate(-324.79 -445.58)"/><polygon class="cls-36" points="19.13 48.85 19.97 49.34 20.09 54.37 19.16 53.83 19.13 48.85"/><polygon class="cls-37" points="19.13 54.94 19.97 55.43 20.09 60.46 19.16 59.92 19.13 54.94"/><path class="cls-6" d="M407.32,529.13l3.33,1.92a1.55,1.55,0,0,1,.56,1.2v2.8s0,.65-.62.28l-3.27-1.89Z" transform="translate(-324.79 -445.58)"/><polygon class="cls-38" points="85.15 88.86 83.79 88.07 83.79 84.88 85.15 85.66 85.15 88.86"/><path class="cls-39" d="M434.48,538.82l-1.74,1.59-8.1-4s-1-1.06-2.29-2.4a48.55,48.55,0,0,0-4.85-4.4c-1.25-.94-3-2.1-4.5-3.06l-1.81-1.15a4.9,4.9,0,0,1-2.06-3.42l.62-13.22c-.09-1.06.59-1.55,1.48-1.05,1.44.82,1.82,1.07,4.93,3.17.46.31,1.07.69,1.79,1.19a20,20,0,0,1,6.48,7.46c.41.79,1,1.92,1.74,3.3l4.91,9.23C433.2,536,434.48,538.82,434.48,538.82Z" transform="translate(-324.79 -445.58)"/><path class="cls-40" d="M426.17,522.82,422.35,534a48.55,48.55,0,0,0-4.85-4.4c-1.25-.94-3-2.1-4.5-3.06L418,512.06a20,20,0,0,1,6.48,7.46C424.84,520.31,425.44,521.44,426.17,522.82Z" transform="translate(-324.79 -445.58)"/><path class="cls-20" d="M433.12,539.75l-8.11-4a66.52,66.52,0,0,0-7.14-6.81c-1.81-1.36-4.65-3.16-6.3-4.2a4.85,4.85,0,0,1-2.06-3.42l.62-13.23a1.72,1.72,0,0,1,0-.46,1.12,1.12,0,0,0-.4,1.12L409.13,522a4.87,4.87,0,0,0,2.06,3.42c1.66,1,4.5,2.85,6.31,4.2a67.58,67.58,0,0,1,7.14,6.81l8.1,4,1.74-1.58-.1-.22Z" transform="translate(-324.79 -445.58)"/><path class="cls-41" d="M490.32,530.89s-11.37,11.3-15.91,14c-5.52,3.31-24.11,9.05-24.11,9.05l-9.06-11.09s18.3-8.45,24-12c4.07-2.52,15.28-11.54,15.28-11.54Z" transform="translate(-324.79 -445.58)"/><path class="cls-21" d="M450.69,565.53s19.84-6.64,25.34-9.94c4.58-2.75,15-13.37,15-13.37l-.66-11.33s-11.37,11.3-15.91,14c-5.52,3.31-24.11,9.05-24.11,9.05Z" transform="translate(-324.79 -445.58)"/><path class="cls-31" d="M455.92,565.13s15.41-4.8,19.72-7.34c4.87-2.86,16.25-13.91,16.25-13.91l.92-1.67-1.9-1.1.07,1.11s-10.8,10.85-15.41,13.54-21.6,8-21.6,8a8,8,0,0,1-6.37-.56L444,560.56V562l.14.23,4.74,2.86C451.6,566.27,453.09,566.07,455.92,565.13Z" transform="translate(-324.79 -445.58)"/><path class="cls-42" d="M462,550.59l.72,9.56s11.36-4,13-5.16c2.36-1.64,8.63-7.34,8.63-7.34l-.71-10s-6,6.42-10.13,8.45A88.18,88.18,0,0,1,462,550.59Z" transform="translate(-324.79 -445.58)"/><path class="cls-43" d="M483.17,542.62l-.25.25-.13.13-.55.54-.38.37a.3.3,0,0,0-.08.08l-.27.25c-1.19,1.14-2.87,2.69-4.47,4l-.59.47-.55.42a6.08,6.08,0,0,1-.54.39,4.17,4.17,0,0,1-.37.26.71.71,0,0,1-.14.1l-.48.3a15.92,15.92,0,0,1-1.44.69l-.19.08-1.13.46-.09,0-.91.36-.48.18,0,0-1.21.47-1.6.59-.27.11-.9.33-.3.11-2.16.79-.17.06-.24.09-.07-.62-.29-2.79a85,85,0,0,0,9.81-3.71c.3-.13.59-.27.87-.41a17.19,17.19,0,0,0,2.64-1.69,59.89,59.89,0,0,0,6.1-5.47c.24-.25.42-.45.53-.55l.05-.06,0,0Z" transform="translate(-324.79 -445.58)"/><path class="cls-43" d="M483.92,547.18s-5.61,5.65-8.81,7.56a9.63,9.63,0,0,1-.91.45l-.4.18c-3.11,1.34-9.82,3.74-9.82,3.74l-.35-3.4a88.63,88.63,0,0,0,9.4-3.52c.45-.2.87-.41,1.27-.6a16.44,16.44,0,0,0,2.27-1.41,61.68,61.68,0,0,0,7.1-6.4Z" transform="translate(-324.79 -445.58)"/><path class="cls-44" d="M483.17,542.62a89.47,89.47,0,0,1-6.72,6.09,19.52,19.52,0,0,1-2.08,1.47,15.92,15.92,0,0,1-1.44.69c-3.15,1.35-9.69,3.69-9.69,3.69l-.07-.62c1.89-.67,7.43-2.7,9.72-3.74a8.37,8.37,0,0,0,.77-.4,23.71,23.71,0,0,0,2.73-2c2.92-2.4,6.08-5.58,6.08-5.58l-.17-2.37.62-.65Z" transform="translate(-324.79 -445.58)"/><path class="cls-44" d="M476.45,548.71l-.55.42a6.08,6.08,0,0,1-.54.39,4.17,4.17,0,0,1-.37.26.71.71,0,0,1-.14.1l-.48.3a15.92,15.92,0,0,1-1.44.69l0-.67-.2-2.76c.3-.13.59-.27.87-.41a17.19,17.19,0,0,0,2.64-1.69l.19,2.48Z" transform="translate(-324.79 -445.58)"/><path class="cls-44" d="M476.77,552.87l-2.57,2.32-.28.26-.12-.08-.57-.32-.2-2.86c.45-.2.87-.41,1.27-.6a16.44,16.44,0,0,0,2.27-1.41Z" transform="translate(-324.79 -445.58)"/><path class="cls-44" d="M483.67,543.78l-.62.65.17,2.37s-5.61,5.66-8.81,7.57c-1.36.81-8.33,3.36-10.49,4.14l.06.6s9.52-3.4,11.13-4.37c3.2-1.91,8.81-7.56,8.81-7.56Z" transform="translate(-324.79 -445.58)"/><path class="cls-45" d="M455.22,557a60.23,60.23,0,0,0,6.43-2.3l-.2-3.71a45.66,45.66,0,0,1-5.3,2c-3.09,1-5.25,1.53-5.25,1.53l.17,3.59C451.8,557.87,453.1,557.55,455.22,557Z" transform="translate(-324.79 -445.58)"/><path class="cls-45" d="M455.22,557.92c-2.17.6-3.4.9-4.1,1.05l.16,3.34s2,0,6.38-1.61,4.23-1.61,4.23-1.61l-.19-3.49A62.65,62.65,0,0,1,455.22,557.92Z" transform="translate(-324.79 -445.58)"/><path class="cls-46" d="M458.74,553.63l-.08-1.56c-.71.26-1.55.54-2.51.84-3.09,1-5.25,1.53-5.25,1.53l.09,1.85,1.32-.36A59.46,59.46,0,0,0,458.74,553.63Z" transform="translate(-324.79 -445.58)"/><path class="cls-46" d="M459,558.06l-.08-1.37c-1.26.47-2.55.91-3.69,1.23-2.17.6-3.4.9-4.1,1.05l.09,1.81a36.12,36.12,0,0,0,3.54-1.12C459,558.11,459,558.06,459,558.06Z" transform="translate(-324.79 -445.58)"/><path class="cls-45" d="M486.22,539.47a49.79,49.79,0,0,0,3.94-3.9l-.11-3.84a41.22,41.22,0,0,1-3.39,3.35c-2,1.78-2.57,2.43-2.57,2.43l.26,3.63C484.82,540.79,484.86,540.61,486.22,539.47Z" transform="translate(-324.79 -445.58)"/><path class="cls-45" d="M486.26,540.44c-1.39,1.17-1.39,1.32-1.84,1.66l.24,3.37s.51,0,3.31-2.8S490.5,540,490.5,540l-.09-3.62A53.67,53.67,0,0,1,486.26,540.44Z" transform="translate(-324.79 -445.58)"/><path class="cls-46" d="M488.92,534.66l-.05-1.67c-.56.56-1.29,1.27-2.21,2.09-2,1.78-2.57,2.43-2.57,2.43l.12,1.71c.2-.18.44-.39.77-.66A51.55,51.55,0,0,0,488.92,534.66Z" transform="translate(-324.79 -445.58)"/><path class="cls-46" d="M489.26,539.13l0-1.48c-1,1-2,2-3,2.79-1.39,1.17-1.39,1.32-1.84,1.66l.12,1.68c.5-.42,1.2-1,2.19-2C489.44,539.08,489.26,539.13,489.26,539.13Z" transform="translate(-324.79 -445.58)"/><path class="cls-47" d="M472.62,564.45v3.4a.69.69,0,0,0,1,.62l7.21-3.65A2.09,2.09,0,0,0,482,563v-3.49a.68.68,0,0,0-1-.61l-7.23,3.74A2.11,2.11,0,0,0,472.62,564.45Z" transform="translate(-324.79 -445.58)"/><path class="cls-48" d="M473.47,568.28a.59.59,0,0,1-.6-.59v-3.27a1.93,1.93,0,0,1,1.05-1.73l6.94-3.6a.66.66,0,0,1,.27-.06.59.59,0,0,1,.6.59V563a2,2,0,0,1-1.07,1.74l-6.92,3.5A.66.66,0,0,1,473.47,568.28Z" transform="translate(-324.79 -445.58)"/><polygon class="cls-49" points="117.28 96.98 116.45 97.3 113.52 95.58 100.76 71.09 101.61 70.79 114.29 95.37 117.28 96.98"/><polygon class="cls-49" points="140.78 48.02 140.28 48.48 153.92 72.56 155.26 74.15 155.73 73.77 154.67 71.96 140.78 48.02"/><polygon class="cls-24" points="124.42 93.64 130.03 99.03 135.83 103.34 137.25 103.77 130.26 98.2 125.23 93.02 124.42 93.64"/><polygon class="cls-50" points="125.23 93.02 130.26 98.2 137.25 103.77 149.78 98.4 158.38 91.08 153.38 83.83 149.13 78.89 125.23 93.02"/><polygon class="cls-42" points="149.77 100.67 148.53 101.36 149.13 109.87 150.26 109.48 152.67 107.69 152.03 99.2 149.77 100.67"/><path d="M473.66,526.46l-.32-.32c-.16-.17-.58-.12-.9.1l-4.89,3.19c-.61.41-.79,1-.38,1.2l.33.19a.92.92,0,0,0,.85-.14l4.81-3.1C473.71,527.22,473.93,526.73,473.66,526.46Z" transform="translate(-324.79 -445.58)"/><polygon class="cls-50" points="147.08 80.85 147.46 80.66 148.93 81.86 148.6 82.1 147.08 80.85"/><polygon class="cls-50" points="146.06 81.45 146.43 81.26 147.91 82.45 147.58 82.7 146.06 81.45"/><polygon class="cls-50" points="145.04 82.04 145.41 81.86 146.89 83.05 146.56 83.3 145.04 82.04"/><polygon class="cls-50" points="144.02 82.64 144.39 82.45 145.87 83.64 145.54 83.89 144.02 82.64"/><polygon class="cls-50" points="143.04 83.27 143.42 83.08 144.9 84.28 144.56 84.52 143.04 83.27"/><polygon class="cls-50" points="142.18 84 142.56 83.81 144.03 85 143.7 85.25 142.18 84"/><path d="M459,535.18l-.3-.36a.71.71,0,0,0-.82,0L453,537.36c-.68.37-1,1-.61,1.37l.31.32a.85.85,0,0,0,.91,0l4.94-2.79C459,536,459.21,535.49,459,535.18Z" transform="translate(-324.79 -445.58)"/><polygon class="cls-50" points="132.53 89.3 132.87 89.18 134.27 90.6 133.97 90.8 132.53 89.3"/><polygon class="cls-50" points="131.59 89.73 131.94 89.6 133.32 91.07 133.01 91.28 131.59 89.73"/><polygon class="cls-50" points="130.61 90.17 130.97 90.04 132.34 91.56 132.01 91.78 130.61 90.17"/><polygon class="cls-50" points="129.59 90.64 129.96 90.5 131.31 92.07 130.97 92.3 129.59 90.64"/><polygon class="cls-50" points="128.57 91.16 128.96 91.02 130.29 92.65 129.93 92.89 128.57 91.16"/><polygon class="cls-50" points="127.59 91.84 128 91.69 129.32 93.4 128.94 93.66 127.59 91.84"/><path class="cls-24" d="M384.66,513.18l13.82,8c1.31.76,3.1-.32,3.34-2l1.84-12.76a5.22,5.22,0,0,0-2.34-5.39l-13.83-8c-1.31-.76-3.09.31-3.34,2l-1.84,12.76A5.23,5.23,0,0,0,384.66,513.18Z" transform="translate(-324.79 -445.58)"/><path class="cls-51" d="M399,520.69l-13.82-8a5.23,5.23,0,0,1-2.35-5.39l1.84-12.76a2.79,2.79,0,0,1,.58-1.32,2.72,2.72,0,0,0-1.07,1.79l-1.84,12.76a5.23,5.23,0,0,0,2.35,5.39l13.82,8a2.19,2.19,0,0,0,2.76-.69A2.07,2.07,0,0,1,399,520.69Z" transform="translate(-324.79 -445.58)"/><path class="cls-52" d="M382.31,509.08l1.84-12.76c.25-1.7,2-2.77,3.34-2l13.83,8a4.93,4.93,0,0,1,2.36,3.8,5.15,5.15,0,0,0-2.36-5.09l-13.83-8c-1.31-.76-3.09.31-3.34,2l-1.84,12.76a6,6,0,0,0,0,1.58C382.3,509.27,382.3,509.18,382.31,509.08Z" transform="translate(-324.79 -445.58)"/><polygon class="cls-53" points="57.63 61.46 60.7 62.4 61.12 60.31 58.2 59.64 58.4 58.61 61 59.09 61.41 57 58.81 56.52 59.02 55.49 61.87 56.13 62.28 54.03 58.87 52.89 57.63 61.46"/><path class="cls-51" d="M385.7,511.83l12.3,7.11a2.14,2.14,0,0,0,3-1.79l1.64-11.36a4.64,4.64,0,0,0-2.09-4.79l-12.3-7.11a2.14,2.14,0,0,0-3,1.79L383.61,507A4.63,4.63,0,0,0,385.7,511.83Z" transform="translate(-324.79 -445.58)"/><path class="cls-54" d="M385.13,512.22l12.3,7.11a2.15,2.15,0,0,0,3-1.79L402,506.18a4.64,4.64,0,0,0-2.08-4.79l-12.31-7.11a2.14,2.14,0,0,0-3,1.79L383,507.43A4.64,4.64,0,0,0,385.13,512.22Z" transform="translate(-324.79 -445.58)"/><path class="cls-24" d="M355.9,496.51l13.83,8c1.31.76,3.09-.31,3.34-2l1.84-12.76a5.23,5.23,0,0,0-2.35-5.39l-13.82-8c-1.32-.76-3.1.32-3.34,2l-1.84,12.76A5.22,5.22,0,0,0,355.9,496.51Z" transform="translate(-324.79 -445.58)"/><polygon class="cls-53" points="48.39 56.12 49.62 47.55 49.38 47.13 47.99 55.49 48.39 56.12"/><path class="cls-51" d="M370.22,504l-13.83-8a5.22,5.22,0,0,1-2.34-5.39l1.84-12.76a2.68,2.68,0,0,1,.58-1.32,2.74,2.74,0,0,0-1.07,1.79l-1.84,12.76a5.22,5.22,0,0,0,2.34,5.39l13.83,8a2.19,2.19,0,0,0,2.76-.69A2.06,2.06,0,0,1,370.22,504Z" transform="translate(-324.79 -445.58)"/><path class="cls-52" d="M353.56,492.41l1.84-12.76c.24-1.7,2-2.77,3.34-2l13.82,8a5,5,0,0,1,2.37,3.8,5.16,5.16,0,0,0-2.37-5.09l-13.82-8c-1.32-.76-3.1.32-3.34,2l-1.84,12.76a6.07,6.07,0,0,0,0,1.59C353.55,492.61,353.54,492.51,353.56,492.41Z" transform="translate(-324.79 -445.58)"/><path class="cls-51" d="M356.94,495.17l12.3,7.1a2.13,2.13,0,0,0,3-1.79l1.64-11.35a4.65,4.65,0,0,0-2.08-4.8l-12.31-7.1a2.13,2.13,0,0,0-3,1.79l-1.64,11.35A4.66,4.66,0,0,0,356.94,495.17Z" transform="translate(-324.79 -445.58)"/><path class="cls-54" d="M356.38,495.56l12.3,7.1a2.13,2.13,0,0,0,3-1.79l1.64-11.35a4.64,4.64,0,0,0-2.09-4.8l-12.3-7.1a2.13,2.13,0,0,0-3,1.79l-1.64,11.35A4.64,4.64,0,0,0,356.38,495.56Z" transform="translate(-324.79 -445.58)"/><polygon class="cls-6" points="25.59 26.62 25.47 27.26 25.21 28.66 25.05 29.55 24.79 30.96 24.61 31.95 24.35 33.36 24.21 34.09 23.98 35.38 23.87 35.98 23.83 36.37 23.67 37.84 23.56 38.85 23.41 40.31 23.29 41.34 23.14 42.8 23 44.13 22.84 45.59 22.63 47.54 20.37 46.31 20.67 44.51 20.91 43.08 21.13 41.78 21.37 40.35 21.54 39.36 21.77 37.94 21.94 36.95 21.95 36.91 22.23 35.55 22.43 34.59 22.7 33.32 22.85 32.59 23.14 31.19 23.35 30.22 23.63 28.83 23.82 27.96 24.11 26.56 24.26 25.85 25.59 26.62"/><path class="cls-24" d="M454.06,487h0c.64-.36.56-1-.18-1.43l-63.92-37a2.76,2.76,0,0,0-2.48-.1h0c-.63.36-.55,1,.18,1.43l63.92,37A2.76,2.76,0,0,0,454.06,487Z" transform="translate(-324.79 -445.58)"/><path class="cls-24" d="M448.72,490.11h0c.64-.37.56-1-.18-1.43l-63.92-37a2.76,2.76,0,0,0-2.48-.1h0c-.63.37-.55,1,.18,1.43l63.92,37A2.76,2.76,0,0,0,448.72,490.11Z" transform="translate(-324.79 -445.58)"/><path class="cls-24" d="M443.38,493.19h0c.64-.37.56-1-.18-1.43l-63.92-37a2.76,2.76,0,0,0-2.48-.11h0c-.63.37-.55,1,.18,1.44l63.92,37A2.76,2.76,0,0,0,443.38,493.19Z" transform="translate(-324.79 -445.58)"/><path class="cls-24" d="M438,496.27h0c.64-.36.56-1-.18-1.43l-63.92-37a2.76,2.76,0,0,0-2.48-.1h0c-.64.36-.56,1,.18,1.43l63.92,37A2.76,2.76,0,0,0,438,496.27Z" transform="translate(-324.79 -445.58)"/><path class="cls-24" d="M432.7,499.36h0c.63-.37.56-1-.18-1.43l-63.92-37a2.76,2.76,0,0,0-2.48-.1h0c-.64.37-.56,1,.18,1.43l63.92,37A2.76,2.76,0,0,0,432.7,499.36Z" transform="translate(-324.79 -445.58)"/><path class="cls-24" d="M427.36,502.44h0c.63-.37.55-1-.18-1.43l-63.92-37a2.76,2.76,0,0,0-2.48-.11h0c-.64.37-.56,1,.18,1.44l63.92,37A2.76,2.76,0,0,0,427.36,502.44Z" transform="translate(-324.79 -445.58)"/><path class="cls-24" d="M422,505.52h0c.63-.36.55-1-.18-1.43l-63.92-37a2.76,2.76,0,0,0-2.48-.1h0c-.64.36-.56,1,.18,1.43l63.92,37A2.73,2.73,0,0,0,422,505.52Z" transform="translate(-324.79 -445.58)"/><path class="cls-50" d="M454.06,486.55h0c.64-.36.56-1-.18-1.43l-63.92-37a2.73,2.73,0,0,0-2.48-.1h0c-.63.36-.55,1,.18,1.43l63.92,37A2.76,2.76,0,0,0,454.06,486.55Z" transform="translate(-324.79 -445.58)"/><path class="cls-50" d="M448.72,489.64h0c.64-.37.56-1-.18-1.44l-63.92-37a2.76,2.76,0,0,0-2.48-.1h0c-.63.37-.55,1,.18,1.43l63.92,37A2.76,2.76,0,0,0,448.72,489.64Z" transform="translate(-324.79 -445.58)"/><path class="cls-50" d="M443.38,492.72h0c.64-.37.56-1-.18-1.43l-63.92-37a2.76,2.76,0,0,0-2.48-.11h0c-.63.37-.55,1,.18,1.43l63.92,37A2.76,2.76,0,0,0,443.38,492.72Z" transform="translate(-324.79 -445.58)"/><path class="cls-50" d="M438,495.8h0c.64-.36.56-1-.18-1.43l-63.92-37a2.76,2.76,0,0,0-2.48-.1h0c-.64.36-.56,1,.18,1.43l63.92,37A2.76,2.76,0,0,0,438,495.8Z" transform="translate(-324.79 -445.58)"/><path class="cls-50" d="M432.7,498.89h0c.63-.37.56-1-.18-1.44l-63.92-37a2.76,2.76,0,0,0-2.48-.1h0c-.64.37-.56,1,.18,1.43l63.92,37A2.76,2.76,0,0,0,432.7,498.89Z" transform="translate(-324.79 -445.58)"/><path class="cls-50" d="M427.36,502h0c.63-.37.55-1-.18-1.43l-63.92-37a2.76,2.76,0,0,0-2.48-.11h0c-.64.37-.56,1,.18,1.43l63.92,37A2.76,2.76,0,0,0,427.36,502Z" transform="translate(-324.79 -445.58)"/><path class="cls-50" d="M422,505.05h0c.63-.36.55-1-.18-1.43l-63.92-37a2.76,2.76,0,0,0-2.48-.1h0c-.64.36-.56,1,.18,1.43l63.92,37A2.76,2.76,0,0,0,422,505.05Z" transform="translate(-324.79 -445.58)"/><path class="cls-5" d="M492.47,543.3s.42,4.68-.49,7-9.43,8.49-9.43,8.49v-.33a.79.79,0,0,0-1.17-.69L473,562.33a1.85,1.85,0,0,0-1,1.63v.43a86.29,86.29,0,0,1-9.35,3.2,72.25,72.25,0,0,1-8.65,1.86l-.14-3.4s18.35-5.51,23.11-8.8C482.32,553.56,492.47,543.3,492.47,543.3Z" transform="translate(-324.79 -445.58)"/><path class="cls-5" d="M453.86,566.05l.14,3.4s-2.55,0-3.85,0a11.38,11.38,0,0,1-3.54-1.48,13.73,13.73,0,0,0-1.68-3l-1.23-1.29-1-2.23-1.81-2.55c1.19.37,3.32,3.8,3.32,3.8s5,3.06,6.2,3.25A7.93,7.93,0,0,0,453.86,566.05Z" transform="translate(-324.79 -445.58)"/><polygon class="cls-55" points="72 60.48 70.31 63.07 69.85 59.23 68.06 58.2 68.9 65.14 68.4 67.67 70.2 68.71 70.71 66.12 73.8 61.51 72 60.48"/><polygon class="cls-55" points="60.89 59.85 61.3 57.76 59.03 56.45 58.72 58.6 60.89 59.85"/><polygon class="cls-55" points="61.01 61.08 58.57 59.67 58.26 61.82 60.59 63.16 61.01 61.08"/><path class="cls-55" d="M392.08,506.66a3.81,3.81,0,0,0-1.73-4.33l-2.63-1.52-1.65,8.33,1.8,1,.43-2.16.67.39.23,2.53,2,1.18-.53-3.33C391.36,508.59,391.84,507.87,392.08,506.66Zm-1.72-.91c-.13.64-.43.88-.82.66l-.83-.48.4-2,.83.48A1.18,1.18,0,0,1,390.36,505.75Z" transform="translate(-324.79 -445.58)"/><polygon class="cls-55" points="61.76 56.89 62.17 54.8 59.49 53.25 59.18 55.4 61.76 56.89"/><polygon class="cls-55" points="55.37 50.87 53.17 55.69 53.13 49.58 51.2 48.47 51.62 57.98 53.48 59.06 57.22 51.94 55.37 50.87"/><polygon class="cls-55" points="58.87 52.89 57.56 52.14 55.91 60.46 57.63 61.46 58.87 52.89"/><polygon class="cls-55" points="45.12 51.68 46.31 45.64 44.51 44.6 42.86 52.93 46.87 55.24 47.21 52.88 45.12 51.68"/><polygon class="cls-55" points="48.39 56.12 49.2 56.59 50.85 48.26 49.62 47.55 48.39 56.12"/><polygon class="cls-55" points="43.34 46.26 43.76 44.17 39.15 41.51 37.5 49.83 42.18 52.53 42.59 50.44 39.72 48.78 39.92 47.75 42.47 49.22 42.88 47.13 40.33 45.66 40.54 44.64 43.34 46.26"/><path class="cls-55" d="M356.39,492l2.36,1.37c1.84,1.06,3.36.11,3.86-2.42s-.34-4.83-2.14-5.87l-2.43-1.4Zm3-5.14.59.34a2.48,2.48,0,0,1,.75,2.71c-.24,1.22-.82,1.76-1.47,1.39l-.67-.39Z" transform="translate(-324.79 -445.58)"/><polygon class="cls-56" points="25.47 27.26 25.21 28.66 23.82 27.96 24.11 26.56 25.47 27.26"/><polygon class="cls-56" points="25.05 29.55 24.79 30.96 23.35 30.22 23.63 28.83 25.05 29.55"/><polygon class="cls-56" points="24.61 31.95 24.35 33.36 22.85 32.59 23.14 31.19 24.61 31.95"/><polygon class="cls-56" points="24.21 34.09 23.98 35.38 22.43 34.59 22.7 33.32 24.21 34.09"/><polygon class="cls-56" points="23.83 36.37 23.67 37.84 21.94 36.95 21.95 36.91 22.23 35.55 23.83 36.37"/><polygon class="cls-56" points="23.56 38.85 23.41 40.31 21.54 39.36 21.77 37.94 23.56 38.85"/><polygon class="cls-56" points="23.29 41.34 23.14 42.8 21.13 41.78 21.37 40.35 23.29 41.34"/><polygon class="cls-56" points="23.02 44.14 22.87 45.61 22.84 45.59 20.67 44.51 20.91 43.08 23 44.13 23.02 44.14"/></g></g></svg>