<svg xmlns="http://www.w3.org/2000/svg" xmlns:xlink="http://www.w3.org/1999/xlink" viewBox="0 0 187.68 151.91"><defs><style>.cls-1{isolation:isolate;}.cls-2{fill:#a9a9ab;}.cls-3{fill:#010007;}.cls-3,.cls-4,.cls-5,.cls-6,.cls-7,.cls-8{fill-rule:evenodd;}.cls-4{fill:#2e2d30;}.cls-5{fill:#1b1b1f;}.cls-6{fill:#3b3b3b;}.cls-7{fill:#cecece;}.cls-8{fill:#7c7774;}.cls-9{fill:url(#Áåçûìÿííûé_ãðàäèåíò_7);}.cls-10{fill:#a4cbeb;}.cls-11{fill:#7290db;}.cls-12{fill:#ffd800;mix-blend-mode:color;}.cls-13{fill:#faa808;}.cls-14{fill:#f7f7f7;}.cls-15{fill:#def7ff;}.cls-16{fill:#071c26;}.cls-17{fill:#56757e;}.cls-18{fill:#e2ff9b;}.cls-19{fill:#8da9b1;}.cls-20{fill:#327dba;}.cls-21{fill:#3aa3ba;}.cls-22{fill:#f7bc00;}.cls-23{fill:#b37100;}.cls-24{fill:#c3840c;}.cls-25{fill:#e1ad25;}.cls-26{fill:url(#Áåçûìÿííûé_ãðàäèåíò_7-2);}.cls-27{fill:#f9c238;}.cls-28{fill:#f9e860;}.cls-29{fill:#ffc722;}.cls-30{fill:#008b9f;}.cls-31{fill:#4cb1c7;}.cls-32{fill:#ffe87e;}.cls-33{fill:#ffda45;}.cls-34{fill:#efa700;}.cls-35{fill:#b06300;}.cls-36{fill:#d79200;}.cls-37{fill:#f9cc3d;}.cls-38{fill:#d3cabb;}.cls-39{fill:#9e9382;}.cls-40{fill:#4c90a1;}.cls-41{mix-blend-mode:multiply;}.cls-42{fill:#e0c700;}.cls-43{fill:#fffccc;}.cls-44{fill:#f7a400;}.cls-45{fill:#006f8d;}.cls-46{fill:#7a6457;}.cls-47{fill:#fff;}</style><linearGradient id="Áåçûìÿííûé_ãðàäèåíò_7" x1="265.71" y1="-253.89" x2="266.9" y2="-253.89" gradientTransform="matrix(1, -0.01, 0.01, 1, 18.4, 389.25)" gradientUnits="userSpaceOnUse"><stop offset="0.16" stop-color="#3d3d3d"/><stop offset="0.16" stop-color="#5e5e5e"/><stop offset="0.56" stop-color="#5e5e5e"/><stop offset="0.56" stop-color="#7a7a7a"/><stop offset="0.87" stop-color="#7a7a7a"/><stop offset="0.87" stop-color="#7a7a7a"/></linearGradient><linearGradient id="Áåçûìÿííûé_ãðàäèåíò_7-2" x1="343.29" y1="-245.97" x2="344.48" y2="-245.97" xlink:href="#Áåçûìÿííûé_ãðàäèåíò_7"/></defs><title>plane</title><g class="cls-1"><g id="Layer_1" data-name="Layer 1"><polygon class="cls-2" points="62.26 73.23 65.63 43.92 62.12 41.76 51.02 52.92 41.26 59.45 62.26 73.23"/><polygon class="cls-2" points="154.91 124.15 180.05 55.28 172.57 50.67 136.44 87.41 115.67 101.3 154.91 124.15"/><polygon class="cls-2" points="133.88 134.42 17.94 148.8 5.76 145.11 59.02 129.25 92.44 112.84 133.88 134.42"/><path class="cls-3" d="M284.55,137.36c-1.13-.65-1.87.19-1.87,1.31s1.22,2.31,2.34,3,1.57.07,1.57-1A4.25,4.25,0,0,0,284.55,137.36Z" transform="translate(-207.61 -7.61)"/><polygon class="cls-3" points="74.22 130.54 75.58 129.73 75.44 130.61 74.22 130.54"/><polygon class="cls-3" points="77.29 134.99 78.57 134.2 77.46 133.19 77.35 134.46 77.29 134.99"/><path class="cls-4" d="M283.33,138.36c-1.12-.65-2-.26-2,.86a4.25,4.25,0,0,0,2,3.22c1.12.64,2,.25,2-.87A4.23,4.23,0,0,0,283.33,138.36Z" transform="translate(-207.61 -7.61)"/><path class="cls-5" d="M283.33,138.56c-1-.59-1.84-.24-1.84.78a3.8,3.8,0,0,0,1.84,2.9c1,.58,1.84.23,1.84-.78A3.81,3.81,0,0,0,283.33,138.56Z" transform="translate(-207.61 -7.61)"/><path class="cls-6" d="M283.33,139c-.75-.43-1.35-.17-1.35.58a2.8,2.8,0,0,0,1.35,2.13c.74.43,1.35.17,1.35-.57A2.83,2.83,0,0,0,283.33,139Z" transform="translate(-207.61 -7.61)"/><path class="cls-7" d="M283.39,139.14c-.66-.38-1.2-.15-1.2.51a2.47,2.47,0,0,0,1.2,1.88c.65.38,1.19.15,1.19-.5A2.51,2.51,0,0,0,283.39,139.14Z" transform="translate(-207.61 -7.61)"/><path class="cls-8" d="M284.38,140.74a2.13,2.13,0,0,0-1-1.43h0c-.55-.3-1-.1-1,.45a2.12,2.12,0,0,0,1,1.61c.57.32,1,.13,1-.43A.63.63,0,0,0,284.38,140.74Z" transform="translate(-207.61 -7.61)"/><path class="cls-7" d="M283.38,139.31h0c-.21,0-.34.14-.34.4a1.44,1.44,0,0,0,.72,1.12c.3.18.56.14.65-.08A2.13,2.13,0,0,0,283.38,139.31Z" transform="translate(-207.61 -7.61)"/><path class="cls-9" d="M282.38,126.49v13.72c0,.17.25.3.55.3s.55-.14.55-.31V126.48Z" transform="translate(-207.61 -7.61)"/><path class="cls-3" d="M282,138.9c-1.12-.64-1.87.19-1.87,1.32s1.22,2.3,2.35,2.95,1.56.07,1.56-1A4.26,4.26,0,0,0,282,138.9Z" transform="translate(-207.61 -7.61)"/><polygon class="cls-3" points="71.67 132.09 73.03 131.28 72.9 132.15 71.67 132.09"/><polygon class="cls-3" points="74.75 136.53 76.03 135.74 74.92 134.74 74.81 136.01 74.75 136.53"/><path class="cls-4" d="M280.78,139.9c-1.12-.65-2-.26-2,.87a4.25,4.25,0,0,0,2,3.21c1.13.65,2,.26,2-.86A4.22,4.22,0,0,0,280.78,139.9Z" transform="translate(-207.61 -7.61)"/><path class="cls-5" d="M280.78,140.1c-1-.58-1.84-.23-1.84.78a3.83,3.83,0,0,0,1.84,2.9c1,.59,1.85.24,1.85-.78A3.81,3.81,0,0,0,280.78,140.1Z" transform="translate(-207.61 -7.61)"/><path class="cls-6" d="M280.78,140.59c-.74-.43-1.35-.17-1.35.57a2.83,2.83,0,0,0,1.35,2.14c.75.42,1.36.17,1.36-.58A2.79,2.79,0,0,0,280.78,140.59Z" transform="translate(-207.61 -7.61)"/><path class="cls-7" d="M280.84,140.69c-.66-.38-1.19-.16-1.19.5a2.48,2.48,0,0,0,1.19,1.89c.66.38,1.2.15,1.2-.51A2.46,2.46,0,0,0,280.84,140.69Z" transform="translate(-207.61 -7.61)"/><path class="cls-8" d="M281.84,142.28a2.12,2.12,0,0,0-1-1.42s0,0,0,0c-.54-.3-1-.09-1,.45a2.12,2.12,0,0,0,1,1.61c.57.33,1,.13,1-.43A1.23,1.23,0,0,0,281.84,142.28Z" transform="translate(-207.61 -7.61)"/><path class="cls-7" d="M280.84,140.86s0,0,0,0c-.2,0-.34.14-.34.41a1.5,1.5,0,0,0,.72,1.12c.31.18.57.13.66-.09A2.12,2.12,0,0,0,280.84,140.86Z" transform="translate(-207.61 -7.61)"/><path class="cls-10" d="M368.12,94l-6.63,11.45-3.18-1.76-.11-.07-1.82-1L353,100.71l-.06,0-.08,0c-2-1.09-4.35-3.18-4.39-4.62v-.39a10.25,10.25,0,0,1,4-7.37c.18-.14.39-.26.59-.39a3.55,3.55,0,0,1,3.41-.35v0l.49.29s0,0,0,0l7.68,4.27Z" transform="translate(-207.61 -7.61)"/><path class="cls-11" d="M364.71,92.07a4.82,4.82,0,0,0-1.72.53,5.94,5.94,0,0,0-1.54,1.5,15.15,15.15,0,0,0-2,3.92,13.81,13.81,0,0,0-.64,1.91,16.08,16.08,0,0,1-.41,1.95c0,.17,0,1.64-.08,1.77l-.11-.07c-.32-.16-1.45-.73-1.74-.82-.1,0-.12-.1-.08-.18,0-.25.45-.62.18-.76l-2.42-1.35-2.4-1.34a9.48,9.48,0,0,1-3-3,3.48,3.48,0,0,1-.26-.51,3,3,0,0,1-.35-2,7.91,7.91,0,0,1,1.23-2.59,10.16,10.16,0,0,1,1.76-2,7.12,7.12,0,0,1,1.36-.82,7.63,7.63,0,0,1,4.49-.47s0,0,0,0Z" transform="translate(-207.61 -7.61)"/><path class="cls-12" d="M368.09,94l-5.15-2.86h0a3.5,3.5,0,0,0-3.39.37c-2.64,1.51-3.72,5-3.73,8,0,2.3,1.56,3.63,3.53,4.72h0l.07,0,.06,0,2,1.11Z" transform="translate(-207.61 -7.61)"/><path class="cls-13" d="M369.54,96.93a10,10,0,0,1-4.6,8.15c-2.64,1.51-4.85.32-4.94-2.67a10,10,0,0,1,4.6-8.14C367.24,92.76,369.45,94,369.54,96.93Z" transform="translate(-207.61 -7.61)"/><path class="cls-14" d="M369.35,97a9.62,9.62,0,0,1-4.42,7.83c-2.53,1.45-4.66.31-4.75-2.56a9.64,9.64,0,0,1,4.43-7.83C367.14,93,369.26,94.17,369.35,97Z" transform="translate(-207.61 -7.61)"/><path class="cls-15" d="M368.33,97.69a7.42,7.42,0,0,1-3.44,6.07c-2,1.14-3.61.24-3.68-2a7.45,7.45,0,0,1,3.44-6.08C366.61,94.57,368.26,95.46,368.33,97.69Z" transform="translate(-207.61 -7.61)"/><path class="cls-16" d="M368.09,97.83a7,7,0,0,1-3.2,5.66c-1.84,1.05-3.37.22-3.44-1.85a7,7,0,0,1,3.2-5.66C366.49,94.93,368,95.75,368.09,97.83Z" transform="translate(-207.61 -7.61)"/><path class="cls-17" d="M364.61,96a7,7,0,0,0-3.16,5.64,3.28,3.28,0,0,0,.12.8l2.51,1.4a4,4,0,0,0,.81-.35,7,7,0,0,0,3.2-5.56Z" transform="translate(-207.61 -7.61)"/><path class="cls-18" d="M362.82,97.69a7.3,7.3,0,0,0-1.28,2.9l4.16,2.31a7.19,7.19,0,0,0,1.85-2.58Z" transform="translate(-207.61 -7.61)"/><path class="cls-19" d="M362.82,97.69a7.3,7.3,0,0,0-1.28,2.9l4.16,2.31a7.19,7.19,0,0,0,1.85-2.58Z" transform="translate(-207.61 -7.61)"/><path class="cls-17" d="M367,97.79a5.54,5.54,0,0,1-2.55,4.51c-1.46.83-2.68.17-2.73-1.48a5.54,5.54,0,0,1,2.55-4.5C365.73,95.48,367,96.15,367,97.79Z" transform="translate(-207.61 -7.61)"/><path class="cls-16" d="M366.54,97.91a4.73,4.73,0,0,1-2.19,3.85c-1.25.73-2.29.16-2.34-1.26a4.78,4.78,0,0,1,2.18-3.86C365.45,95.92,366.49,96.49,366.54,97.91Z" transform="translate(-207.61 -7.61)"/><path class="cls-17" d="M365.22,99.43a1.14,1.14,0,0,1-.52.91c-.3.18-.55,0-.56-.3a1.15,1.15,0,0,1,.52-.92A.34.34,0,0,1,365.22,99.43Z" transform="translate(-207.61 -7.61)"/><path class="cls-10" d="M374.22,83.32l6.62-11.46L369.22,65.4h0a3.5,3.5,0,0,0-3.39.37,10,10,0,0,0-4.61,8.14c.05,1.43,2.43,3.52,4.41,4.61h0l.08,0,.06,0Z" transform="translate(-207.61 -7.61)"/><path class="cls-11" d="M364.2,71.74a7.2,7.2,0,0,1,1.59-2.1,7.72,7.72,0,0,1,2.36-1.7,8.74,8.74,0,0,1,2.33-.45c.59-.07,1.09-.56,1.71-.4.31.09,2.06.78,1.83,1.19-.06.1-.73.25-.87.35a4.51,4.51,0,0,0-1,.9,11,11,0,0,0-2.34,4.7,12.08,12.08,0,0,0-.45,3c0,.84-.33,2.74,0,3.49a6.09,6.09,0,0,0-1.46-.85,22.82,22.82,0,0,0-2.11-.87c-.94-.23-.49-.78-1.12-1.55A5.94,5.94,0,0,1,364.2,71.74Z" transform="translate(-207.61 -7.61)"/><path class="cls-12" d="M381.15,71.94,376,69.08h0a3.5,3.5,0,0,0-3.39.37c-2.64,1.51-3.72,5-3.73,8,0,2.3,1.55,3.63,3.52,4.72h0l.08,0,.06,0,2,1.11Z" transform="translate(-207.61 -7.61)"/><path class="cls-13" d="M382.26,74.84a10,10,0,0,1-4.6,8.14c-2.64,1.51-4.85.32-4.94-2.67a10,10,0,0,1,4.6-8.14C380,70.66,382.17,71.85,382.26,74.84Z" transform="translate(-207.61 -7.61)"/><path class="cls-14" d="M382.07,74.94a9.62,9.62,0,0,1-4.42,7.83c-2.53,1.45-4.66.3-4.74-2.56a9.58,9.58,0,0,1,4.42-7.83C379.86,70.92,382,72.07,382.07,74.94Z" transform="translate(-207.61 -7.61)"/><path class="cls-15" d="M381.05,75.59a7.47,7.47,0,0,1-3.43,6.08c-2,1.12-3.62.24-3.69-2a7.48,7.48,0,0,1,3.44-6.08C379.33,72.48,381,73.36,381.05,75.59Z" transform="translate(-207.61 -7.61)"/><path class="cls-16" d="M380.81,75.73a7,7,0,0,1-3.2,5.66c-1.83,1.06-3.37.23-3.43-1.85a6.93,6.93,0,0,1,3.2-5.66C379.21,72.82,380.75,73.65,380.81,75.73Z" transform="translate(-207.61 -7.61)"/><path class="cls-17" d="M377.34,73.91a6.9,6.9,0,0,0-3.16,5.63,3.37,3.37,0,0,0,.11.81l2.51,1.39a4,4,0,0,0,.81-.35,7,7,0,0,0,3.2-5.55Z" transform="translate(-207.61 -7.61)"/><path class="cls-18" d="M375.54,75.59a7.3,7.3,0,0,0-1.28,2.9l4.16,2.31a7.25,7.25,0,0,0,1.86-2.58Z" transform="translate(-207.61 -7.61)"/><path class="cls-19" d="M375.54,75.59a7.3,7.3,0,0,0-1.28,2.9l4.16,2.31a7.25,7.25,0,0,0,1.86-2.58Z" transform="translate(-207.61 -7.61)"/><path class="cls-17" d="M379.73,75.7a5.53,5.53,0,0,1-2.55,4.5c-1.45.83-2.68.18-2.73-1.48a5.53,5.53,0,0,1,2.55-4.5C378.45,73.39,379.68,74,379.73,75.7Z" transform="translate(-207.61 -7.61)"/><path class="cls-16" d="M379.26,75.8a4.78,4.78,0,0,1-2.18,3.87c-1.25.71-2.31.15-2.35-1.27a4.76,4.76,0,0,1,2.19-3.86C378.17,73.83,379.21,74.39,379.26,75.8Z" transform="translate(-207.61 -7.61)"/><path class="cls-14" d="M377.94,77.33a1.13,1.13,0,0,1-.52.92c-.3.16-.55,0-.56-.3a1.15,1.15,0,0,1,.52-.93A.34.34,0,0,1,377.94,77.33Z" transform="translate(-207.61 -7.61)"/><path class="cls-20" d="M265,146.36l6.62-11.46L260,128.43v0a3.51,3.51,0,0,0-3.4.36A10,10,0,0,0,252,137c0,1.44,2.43,3.52,4.4,4.61h0l.07,0,.06,0Z" transform="translate(-207.61 -7.61)"/><path class="cls-21" d="M270.38,135.61l-.16-.09a4.32,4.32,0,0,0-3.5-.22c-1.58.55-4.49,1.64-6.14,2.13-3.41,1-8.08-.07-8.38-.49-1.57-2.22,5.23-8.52,5.23-8.52a6.22,6.22,0,0,0-.84.39,9.36,9.36,0,0,0-3.41,3.68A9,9,0,0,0,252,137c0,.55,1.43,1.93,3.25,3.12L264,145a6,6,0,0,0,1.28-.55,8.47,8.47,0,0,0,1.4-1l3.48-6A8.15,8.15,0,0,0,270.38,135.61Z" transform="translate(-207.61 -7.61)"/><path class="cls-22" d="M271.61,134.9,266.47,132v0a3.51,3.51,0,0,0-3.4.36c-2.63,1.51-3.71,5.05-3.72,8,0,2.3,1.55,3.63,3.52,4.72h0l.07,0,.07,0,2,1.12Z" transform="translate(-207.61 -7.61)"/><path class="cls-13" d="M273,137.87a10,10,0,0,1-4.6,8.14c-2.63,1.52-4.84.32-4.94-2.66a10,10,0,0,1,4.61-8.14C270.73,133.69,272.94,134.88,273,137.87Z" transform="translate(-207.61 -7.61)"/><path class="cls-14" d="M272.85,138a9.6,9.6,0,0,1-4.42,7.82c-2.54,1.46-4.66.31-4.75-2.56a9.59,9.59,0,0,1,4.42-7.82C270.64,134,272.76,135.11,272.85,138Z" transform="translate(-207.61 -7.61)"/><path class="cls-15" d="M271.82,138.63a7.42,7.42,0,0,1-3.43,6.07c-2,1.13-3.61.24-3.68-2a7.47,7.47,0,0,1,3.43-6.08C270.11,135.51,271.76,136.4,271.82,138.63Z" transform="translate(-207.61 -7.61)"/><path class="cls-16" d="M271.59,138.76a7,7,0,0,1-3.21,5.67c-1.83,1-3.37.22-3.43-1.85a6.94,6.94,0,0,1,3.2-5.67C270,135.86,271.52,136.69,271.59,138.76Z" transform="translate(-207.61 -7.61)"/><path class="cls-17" d="M268.11,136.94a7,7,0,0,0-3.16,5.64,3.86,3.86,0,0,0,.11.8l2.51,1.39a3.43,3.43,0,0,0,.81-.34,6.94,6.94,0,0,0,3.2-5.56Z" transform="translate(-207.61 -7.61)"/><path class="cls-18" d="M266.31,138.62a7.26,7.26,0,0,0-1.27,2.91l4.16,2.31a7.4,7.4,0,0,0,1.85-2.58Z" transform="translate(-207.61 -7.61)"/><path class="cls-19" d="M266.31,138.62a7.26,7.26,0,0,0-1.27,2.91l4.16,2.31a7.4,7.4,0,0,0,1.85-2.58Z" transform="translate(-207.61 -7.61)"/><path class="cls-17" d="M270.5,138.73a5.53,5.53,0,0,1-2.54,4.5c-1.46.84-2.68.18-2.73-1.47a5.53,5.53,0,0,1,2.54-4.5C269.23,136.42,270.45,137.08,270.5,138.73Z" transform="translate(-207.61 -7.61)"/><path class="cls-16" d="M270,138.84a4.7,4.7,0,0,1-2.18,3.86c-1.25.72-2.3.15-2.34-1.26a4.71,4.71,0,0,1,2.18-3.86C268.94,136.86,270,137.43,270,138.84Z" transform="translate(-207.61 -7.61)"/><path class="cls-14" d="M268.71,140.36a1.13,1.13,0,0,1-.51.92c-.3.17-.55,0-.57-.3a1.13,1.13,0,0,1,.53-.92A.34.34,0,0,1,268.71,140.36Z" transform="translate(-207.61 -7.61)"/><path class="cls-20" d="M303.72,139l6.62-11.46-11.62-6.46h0a3.56,3.56,0,0,0-3.4.36,10,10,0,0,0-4.6,8.15c0,1.43,2.43,3.52,4.4,4.61h0l.07,0,.06,0Z" transform="translate(-207.61 -7.61)"/><path class="cls-21" d="M309.11,128.27l-.16-.09a4.24,4.24,0,0,0-3.5-.22c-1.58.55-4.49,1.63-6.14,2.12-3.41,1-8-.07-8.33-.49-1.57-2.21,5.18-8.52,5.18-8.52a7.74,7.74,0,0,0-.84.39,9.45,9.45,0,0,0-3.41,3.69,9,9,0,0,0-1.19,4.46c0,.55,1.42,1.92,3.25,3.12l8.79,4.89a6,6,0,0,0,1.28-.55,8,8,0,0,0,1.4-1l3.48-6A8.84,8.84,0,0,0,309.11,128.27Z" transform="translate(-207.61 -7.61)"/><path class="cls-22" d="M310.37,127.6l-5.14-2.86h0a3.51,3.51,0,0,0-3.4.36c-2.63,1.52-3.71,5-3.72,8,0,2.3,1.55,3.63,3.52,4.72h0l.07,0,.07,0,2,1.12Z" transform="translate(-207.61 -7.61)"/><path class="cls-13" d="M311.76,130.53a10,10,0,0,1-4.6,8.14c-2.64,1.51-4.85.32-4.94-2.67a10,10,0,0,1,4.61-8.14C309.46,126.35,311.67,127.54,311.76,130.53Z" transform="translate(-207.61 -7.61)"/><path class="cls-14" d="M311.58,130.63a9.62,9.62,0,0,1-4.42,7.83c-2.54,1.45-4.66.31-4.75-2.56a9.6,9.6,0,0,1,4.42-7.83C309.37,126.62,311.49,127.76,311.58,130.63Z" transform="translate(-207.61 -7.61)"/><path class="cls-15" d="M310.55,131.28a7.47,7.47,0,0,1-3.43,6.08c-2,1.13-3.62.23-3.68-2a7.47,7.47,0,0,1,3.43-6.08C308.84,128.17,310.49,129.05,310.55,131.28Z" transform="translate(-207.61 -7.61)"/><path class="cls-16" d="M310.31,131.42a6.93,6.93,0,0,1-3.2,5.66c-1.83,1.06-3.37.23-3.43-1.85a6.94,6.94,0,0,1,3.2-5.66C308.71,128.52,310.25,129.34,310.31,131.42Z" transform="translate(-207.61 -7.61)"/><path class="cls-17" d="M306.84,129.59a7,7,0,0,0-3.16,5.64,4.06,4.06,0,0,0,.11.81l2.51,1.39a3.48,3.48,0,0,0,.81-.35,7,7,0,0,0,3.2-5.55Z" transform="translate(-207.61 -7.61)"/><path class="cls-18" d="M305,131.28a7.44,7.44,0,0,0-1.28,2.9l4.17,2.31a7.22,7.22,0,0,0,1.85-2.58Z" transform="translate(-207.61 -7.61)"/><path class="cls-19" d="M305,131.28a7.44,7.44,0,0,0-1.28,2.9l4.17,2.31a7.22,7.22,0,0,0,1.85-2.58Z" transform="translate(-207.61 -7.61)"/><path class="cls-17" d="M309.23,131.38a5.54,5.54,0,0,1-2.54,4.51c-1.46.83-2.68.17-2.73-1.48a5.51,5.51,0,0,1,2.54-4.5C308,129.08,309.18,129.74,309.23,131.38Z" transform="translate(-207.61 -7.61)"/><path class="cls-16" d="M308.76,131.5a4.73,4.73,0,0,1-2.18,3.86c-1.25.72-2.3.15-2.34-1.26a4.73,4.73,0,0,1,2.18-3.87C307.67,129.52,308.72,130.08,308.76,131.5Z" transform="translate(-207.61 -7.61)"/><path class="cls-14" d="M307.44,133a1.15,1.15,0,0,1-.52.93c-.3.17-.54,0-.56-.31a1.1,1.1,0,0,1,.52-.91C307.18,132.55,307.43,132.68,307.44,133Z" transform="translate(-207.61 -7.61)"/><polygon class="cls-2" points="54.72 77.38 8.61 78 2.88 76.26 16.98 71.92 32.69 64.2 54.72 77.38"/><path class="cls-2" d="M389.89,153.55s-2.74-4.63-7.49-11c-.71-1-6.74-7-7.88-8-9.6-8.66-10.94-5.88-24.87-14S235.7,64.11,235.7,64.11,232,62,231.36,66.59c-.7,5.21,1.67,2.49,8.2,10,6.71,7.66,17.94,18.3,27.75,24.67s42.53,25.93,62.62,37.24,29.77,15.44,39.25,17.73S392.63,163.57,389.89,153.55Z" transform="translate(-207.61 -7.61)"/><path class="cls-3" d="M362.18,144.74c-1.12-.65-1.87.19-1.87,1.31s1.22,2.31,2.35,3,1.56.07,1.56-1A4.22,4.22,0,0,0,362.18,144.74Z" transform="translate(-207.61 -7.61)"/><polygon class="cls-3" points="151.85 137.93 153.22 137.11 153.08 137.99 151.85 137.93"/><polygon class="cls-3" points="154.93 142.37 156.21 141.58 155.1 140.57 154.99 141.84 154.93 142.37"/><path class="cls-4" d="M361,145.74c-1.13-.65-2-.26-2,.86a4.22,4.22,0,0,0,2,3.22c1.12.64,2,.25,2-.87A4.23,4.23,0,0,0,361,145.74Z" transform="translate(-207.61 -7.61)"/><path class="cls-5" d="M361,145.94c-1-.59-1.85-.24-1.85.78a3.81,3.81,0,0,0,1.85,2.9c1,.58,1.84.23,1.84-.78A3.81,3.81,0,0,0,361,145.94Z" transform="translate(-207.61 -7.61)"/><path class="cls-6" d="M361,146.42c-.75-.43-1.36-.17-1.36.58a2.81,2.81,0,0,0,1.36,2.13c.74.43,1.35.17,1.35-.57A2.83,2.83,0,0,0,361,146.42Z" transform="translate(-207.61 -7.61)"/><path class="cls-7" d="M361,146.52c-.66-.38-1.19-.15-1.19.51a2.46,2.46,0,0,0,1.19,1.88c.66.38,1.2.15,1.2-.5A2.49,2.49,0,0,0,361,146.52Z" transform="translate(-207.61 -7.61)"/><path class="cls-8" d="M362,148.12a2.13,2.13,0,0,0-1-1.43h0c-.54-.3-1-.1-1,.45a2.12,2.12,0,0,0,1,1.61c.57.32,1,.13,1-.43A.62.62,0,0,0,362,148.12Z" transform="translate(-207.61 -7.61)"/><path class="cls-7" d="M361,146.69h0c-.2,0-.33.14-.33.4a1.46,1.46,0,0,0,.71,1.12c.31.18.57.14.66-.08A2.13,2.13,0,0,0,361,146.69Z" transform="translate(-207.61 -7.61)"/><polygon class="cls-23" points="150.3 138.04 151.49 136.23 151.67 136.43 150.47 138.24 150.3 138.04"/><polygon class="cls-24" points="153.35 135.15 151.49 136.23 151.67 136.43 153.51 135.35 153.35 135.15"/><polygon class="cls-25" points="152.33 137.15 150.47 138.24 151.67 136.43 153.53 135.34 152.33 137.15"/><path class="cls-26" d="M360,133.87v13.72c0,.17.25.3.55.3s.55-.14.54-.31V133.86Z" transform="translate(-207.61 -7.61)"/><path class="cls-3" d="M359.64,146.28c-1.13-.64-1.87.19-1.87,1.31s1.22,2.31,2.34,3,1.57.07,1.57-1.05A4.26,4.26,0,0,0,359.64,146.28Z" transform="translate(-207.61 -7.61)"/><polygon class="cls-3" points="149.31 139.47 150.67 138.66 150.53 139.53 149.31 139.47"/><polygon class="cls-3" points="152.38 143.91 153.67 143.12 152.55 142.12 152.45 143.39 152.38 143.91"/><path class="cls-4" d="M358.42,147.28c-1.12-.65-2-.26-2,.87a4.25,4.25,0,0,0,2,3.21c1.12.65,2,.26,2-.87A4.25,4.25,0,0,0,358.42,147.28Z" transform="translate(-207.61 -7.61)"/><path class="cls-5" d="M358.42,147.48c-1-.58-1.84-.23-1.84.78a3.83,3.83,0,0,0,1.84,2.9c1,.59,1.84.24,1.84-.78A3.8,3.8,0,0,0,358.42,147.48Z" transform="translate(-207.61 -7.61)"/><path class="cls-6" d="M358.42,148c-.74-.43-1.35-.17-1.35.57a2.83,2.83,0,0,0,1.35,2.14c.75.42,1.36.17,1.36-.58A2.79,2.79,0,0,0,358.42,148Z" transform="translate(-207.61 -7.61)"/><path class="cls-7" d="M358.48,148.07c-.66-.38-1.2-.16-1.2.5a2.49,2.49,0,0,0,1.2,1.89c.66.38,1.19.15,1.19-.51A2.45,2.45,0,0,0,358.48,148.07Z" transform="translate(-207.61 -7.61)"/><path class="cls-8" d="M359.48,149.66a2.15,2.15,0,0,0-1-1.42l0,0c-.55-.3-1-.09-1,.45a2.12,2.12,0,0,0,1,1.61c.56.33,1,.13,1-.43A1.23,1.23,0,0,0,359.48,149.66Z" transform="translate(-207.61 -7.61)"/><path class="cls-7" d="M358.48,148.24l0,0c-.2,0-.34.14-.34.41a1.47,1.47,0,0,0,.72,1.12c.31.18.57.13.66-.09A2.15,2.15,0,0,0,358.48,148.24Z" transform="translate(-207.61 -7.61)"/><polygon class="cls-23" points="155.39 140.93 152.85 137.16 153.05 137.16 155.58 140.94 155.39 140.93"/><polygon class="cls-24" points="154.71 136.07 152.85 137.16 153.05 137.16 154.89 136.08 154.71 136.07"/><polygon class="cls-25" points="157.44 139.85 155.58 140.94 153.05 137.16 154.91 136.07 157.44 139.85"/><polygon class="cls-27" points="61.73 55.88 65.1 26.09 65.1 25.33 51.56 35.76 40.73 42.11 61.73 55.88"/><polygon class="cls-28" points="61.73 54.64 65.1 25.33 61.59 23.17 50.49 34.34 40.73 40.87 61.73 54.64"/><polygon class="cls-29" points="42.06 39.99 45.6 41.23 53.19 36.15 50.49 34.34 42.06 39.99"/><polygon class="cls-30" points="152.03 108.87 177.16 38.97 177.16 37.37 135.83 72.53 112.79 86.03 152.03 108.87"/><polygon class="cls-28" points="152.03 106.24 177.16 37.37 169.69 32.77 133.56 69.5 112.79 83.4 152.03 106.24"/><polygon class="cls-31" points="175.16 36.14 177.16 37.37 152.03 106.24 145.88 102.2 175.16 36.14"/><path class="cls-32" d="M395.17,145.69c.15-1.25,1.15-1.5-7-11.54S375,119.07,361.11,111s-121.56-65.6-121.56-65.6-3.71-2.14-4.34,2.48c-.7,5.21,8.42,12.48,15.81,19.09s25.34,23.8,35.15,30.17,35.12,20.42,55.22,31.73,29.36,18.48,38.84,20.76S394.79,149,395.17,145.69Z" transform="translate(-207.61 -7.61)"/><path class="cls-22" d="M394.38,144.44s.05-2.73-5.48-7.81c-.87-.8-2.45.17-3.59-.85-9.6-8.66-14.49-14.19-28.42-22.29s-121.56-65.6-121.56-65.6-3.71-2.14-4.34,2.48c-.7,5.21,9.28,11.63,15.81,19.09,6.7,7.65,17.94,18.3,27.75,24.67s42.52,25.92,62.62,37.23,29.77,15.45,39.24,17.73S394.66,147.67,394.38,144.44Z" transform="translate(-207.61 -7.61)"/><path class="cls-33" d="M235.33,47.89s-3.71-2.14-4.34,2.48c12.41,8.4,28.67,18.54,38.21,28.45,8.11,8.43,50.93,28.85,71,40.16s29.76,15.45,39.24,17.73a42.36,42.36,0,0,0,8,1.17c-.67-.67-3.28-2.38-2.21-2.1,4.61,1.2-6.12-10.75-6.12-10.75,4.27,2.3-1.23,4-2.67,2.7a107.24,107.24,0,0,0-19.63-14.24C343,105.39,235.33,47.89,235.33,47.89Z" transform="translate(-207.61 -7.61)"/><path class="cls-32" d="M271.94,70.64c16.31,10.1,49.32,28.84,69.41,40.15,14.54,8.19,26.17,14.53,35.17,16.94a107.24,107.24,0,0,0-19.63-14.24c-13.94-8.1-121.56-65.6-121.56-65.6s-2.38-1.37-3.65.47C244.08,55,260.5,63.55,271.94,70.64Z" transform="translate(-207.61 -7.61)"/><path class="cls-34" d="M381,142.37c-9.48-2.28-19.15-6.42-39.24-17.73S279,92.7,269.2,86.33s-9.75-10.8-27.75-24.67c-3.54-2.72-6.89-6.48-10.27-9.37,1.44,4.83,9.87,10.6,15.62,17.17,6.7,7.65,17.94,18.3,27.75,24.67s42.52,25.92,62.62,37.23,29.77,15.45,39.24,17.73,18.83-.74,18.55-4c0,0,.46-3.23-2.88-1.62A37.63,37.63,0,0,1,381,142.37Z" transform="translate(-207.61 -7.61)"/><path class="cls-35" d="M259.45,68.32l-5.28,1.88a7.39,7.39,0,0,1-3.64.35h0a7.38,7.38,0,0,1-2.87-1.06l-1.93-1.22Z" transform="translate(-207.61 -7.61)"/><path class="cls-36" d="M378.32,146.6c-9.48-2.28-19.15-6.41-39.25-17.73s-56-30.93-65.77-37.3A159.4,159.4,0,0,1,244.6,67c-3.58-4.1-8.2-7.87-11.53-11.31,3.17,4.07,9.26,8.69,13.73,13.8,6.7,7.65,17.94,18.3,27.75,24.67s42.52,25.92,62.62,37.23,29.8,15.3,39.24,17.73c11.59,3,18.11.59,18.36-2.87l-1.39.69C390.54,148.13,384.83,148.17,378.32,146.6Z" transform="translate(-207.61 -7.61)"/><polygon class="cls-35" points="130.99 119.15 126.69 122.13 121.29 119.1 130.99 119.15"/><polygon class="cls-27" points="130.99 119.15 15.06 132.49 2.88 128.8 2.88 127.2 56.14 113.98 130.99 116.51 130.99 119.15"/><polygon class="cls-28" points="130.99 116.51 15.06 130.89 2.88 127.2 56.14 111.34 89.56 94.93 130.99 116.51"/><polygon class="cls-27" points="51.84 60.71 5.72 60.84 0 59.1 0 58.35 14.1 55.24 51.84 59.47 51.84 60.71"/><polygon class="cls-28" points="51.84 59.47 5.72 60.09 0 58.35 14.1 54.01 29.81 46.29 51.84 59.47"/><path class="cls-37" d="M388.17,134.15C380,124.12,375,119.07,361.11,111s-121.56-65.6-121.56-65.6-3-1.7-4,1.25c1.31-1.18,3.28,0,3.28,0s107.63,57.5,121.56,65.6,18.92,13.14,27.07,23.18,7.15,10.29,7,11.54a4,4,0,0,1-.25.94,4,4,0,0,0,1-2.14C395.32,144.44,396.32,144.19,388.17,134.15Z" transform="translate(-207.61 -7.61)"/><path class="cls-38" d="M388.17,134.15l-1.9-2.31-3.63,1.82-3-.47-2.51-.7-2.32-1.07s-1.36.69-1.49,1a5.14,5.14,0,0,0,0,1.38l3.1,2,5.41,1.63,5.37.43,2.48-1.87Z" transform="translate(-207.61 -7.61)"/><path class="cls-39" d="M388.17,134.15l-1.9-2.31h0l.91,1.1,1.51,1.89-2.48,1.87-5.37-.43-5.41-1.63-2.14-1.41c0,.3,0,.57,0,.57l3.1,2,5.41,1.63,5.37.43,2.48-1.87Z" transform="translate(-207.61 -7.61)"/><path class="cls-37" d="M239.21,17.1s-.58-2-3.44-3.54-10.31-5.95-10.31-5.95l-1.34.72,12.22,37.75s.92,1.42,12.09,7.42C257,58.11,265.55,63.17,267.86,64c.7.25,1.34-.72,1.34-.72s-.25-.94-2.14-2.37a47.18,47.18,0,0,1-10.35-12.46C253.28,42.37,239.21,17.1,239.21,17.1Z" transform="translate(-207.61 -7.61)"/><path class="cls-22" d="M267.86,64a217.58,217.58,0,0,1-20.77-9.78c-3.14-1.69-5.48-3-7.2-4-4.41-2.65-4.89-3.38-4.89-3.38L224.12,8.32l4.22,2.46c2.19,1.27,4.69,2.72,6.09,3.49,2.86,1.59,3.44,3.54,3.44,3.54s14.07,25.27,17.5,31.36a47.27,47.27,0,0,0,10.35,12.47C267.61,63.06,267.86,64,267.86,64Z" transform="translate(-207.61 -7.61)"/><polygon class="cls-40" points="21.29 17.05 32.42 13.93 46.56 39.52 31.75 42.24 24.78 28.95 21.29 17.05"/><g class="cls-41"><path class="cls-42" d="M348,137s0,0-.08-.05l-6.54-3.5a7.33,7.33,0,0,1-2.11-4.84,17.07,17.07,0,0,1,.21-3.92,2.36,2.36,0,0,1,1.32-1.8A2.39,2.39,0,0,1,343,123l1.86,1.21a3.94,3.94,0,0,1,1.95,4,19.81,19.81,0,0,0-.13,4.64c.32,3.06,1.18,3.77,1.37,3.89l.06,0ZM341.82,123a2.1,2.1,0,0,0-2.07,1.78,17.11,17.11,0,0,0-.2,3.86,7.18,7.18,0,0,0,2,4.61l5.79,3.1a8.35,8.35,0,0,1-.93-3.47,19.84,19.84,0,0,1,.12-4.71,3.66,3.66,0,0,0-1.8-3.69h0l-1.85-1.2A2,2,0,0,0,341.82,123Z" transform="translate(-207.61 -7.61)"/></g><path class="cls-43" d="M270,73.91c1.78,1,2.62,3.32,2.12,5.83s-2,3.46-3.83,2.4l-2.35-1.35,1.64-8.27Zm-1.85,5.79.67.38c.65.38,1.22-.16,1.46-1.37a2.49,2.49,0,0,0-.74-2.7l-.59-.34Z" transform="translate(-207.61 -7.61)"/><path class="cls-43" d="M274.78,79l-.2,1,2.53,1.46-.41,2.08-2.53-1.46-.2,1,2.85,1.65-.41,2.08-4.64-2.69,1.63-8.26L278,78.54l-.41,2.08Z" transform="translate(-207.61 -7.61)"/><path class="cls-43" d="M281.58,87.3l-.45,2.27-4-2.33L278.73,79l1.79,1-1.19,6Z" transform="translate(-207.61 -7.61)"/><path class="cls-43" d="M281.59,89.84l1.64-8.27,1.79,1-1.64,8.27Z" transform="translate(-207.61 -7.61)"/><path class="cls-43" d="M285.78,92.26l-.41-9.46,1.91,1.11.05,6.07,2.18-4.78,1.83,1-3.71,7.08Z" transform="translate(-207.61 -7.61)"/><path class="cls-43" d="M293.06,89.56l-.2,1L295.4,92,295,94.11l-2.53-1.46-.2,1,2.85,1.65-.41,2.07-4.64-2.68,1.64-8.27,4.57,2.64-.41,2.08Z" transform="translate(-207.61 -7.61)"/><path class="cls-43" d="M298.26,97.07l-.67-.39-.43,2.15-1.79-1L297,89.52,299.62,91a3.77,3.77,0,0,1,1.72,4.29c-.23,1.2-.71,1.92-1.37,2.12l.53,3.3-2-1.16Zm.56-2c.39.22.68,0,.81-.65a1.16,1.16,0,0,0-.42-1.32l-.82-.48-.39,2Z" transform="translate(-207.61 -7.61)"/><path class="cls-43" d="M304.22,102.91l-1.79-1,.5-2.51-.83-6.9,1.78,1,.46,3.81L306,94.73l1.78,1-3.07,4.57Z" transform="translate(-207.61 -7.61)"/><g class="cls-41"><path class="cls-42" d="M287.4,101.91l-.11-.06-6.73-4.19a7.6,7.6,0,0,1-2-5c0-.5-.05-1-.06-1.46a1.86,1.86,0,0,1,.95-1.68,1.89,1.89,0,0,1,2,0L284,91.2a4.19,4.19,0,0,1,2,3.57c0,.84.05,1.8.14,2.85.27,3,1.05,3.81,1.27,4l.08,0Zm-7-12.3a1.61,1.61,0,0,0-1.61,1.64q0,.69.06,1.44a7.47,7.47,0,0,0,1.88,4.73l6,3.73a9,9,0,0,1-.84-3.5c-.1-1.06-.15-2-.15-2.87a3.85,3.85,0,0,0-1.87-3.32l-2.63-1.61A1.6,1.6,0,0,0,280.41,89.61Z" transform="translate(-207.61 -7.61)"/></g><path class="cls-44" d="M239.89,50.17c-4.41-2.65-4.89-3.38-4.89-3.38L224.12,8.32l4.22,2.46Z" transform="translate(-207.61 -7.61)"/><polygon class="cls-29" points="14.1 54.01 17.64 55.24 30.6 49.04 27.9 47.23 14.1 54.01"/><polygon class="cls-29" points="56.14 111.34 59.69 112.58 77.39 104.02 74.68 102.21 56.14 111.34"/><polygon class="cls-29" points="117.12 80.53 120.67 81.77 136.26 71.32 133.56 69.5 117.12 80.53"/><polygon class="cls-31" points="32.42 13.93 33.6 13.09 47.75 38.44 46.56 39.52 32.42 13.93"/><polygon class="cls-31" points="121.81 111.73 75.44 118.7 11.73 129.88 15.06 130.89 130.99 116.51 121.81 111.73"/><polygon class="cls-30" points="15.06 130.89 15.06 132.49 130.99 119.15 130.99 116.51 15.06 130.89"/><polygon class="cls-45" points="11.73 129.88 11.73 131.48 15.06 132.49 15.06 130.89 11.73 129.88"/><path class="cls-46" d="M338.8,113.4l-.61,1.72-.11.31-.29.83-.13.36a.58.58,0,0,1-.74.3l-1.4-.78a.56.56,0,0,1-.28-.66l0,0,.58-1.63h0l.57-1.62a.58.58,0,0,1,.73-.29l.1.06.08,0,1.23.68a.77.77,0,0,1,.26.28A.61.61,0,0,1,338.8,113.4Z" transform="translate(-207.61 -7.61)"/><path class="cls-39" d="M336.31,115.79a.54.54,0,0,1-.28-.65l0,0,.58-1.64.55-1.54,0,0a.58.58,0,0,0-.73.29l-.57,1.62-.58,1.63,0,0a.56.56,0,0,0,.28.66l1.4.78a.58.58,0,0,0,.74-.3l0-.06Z" transform="translate(-207.61 -7.61)"/><path class="cls-46" d="M264.1,72.15l-.61,1.72-.11.31-.3.82-.13.37a.58.58,0,0,1-.73.3l-1.4-.79a.54.54,0,0,1-.28-.65l0,0,.58-1.63h0l.57-1.61a.58.58,0,0,1,.73-.29l.1,0,.07,0,1.24.68a.57.57,0,0,1,.25.72Z" transform="translate(-207.61 -7.61)"/><path class="cls-39" d="M261.61,74.54a.54.54,0,0,1-.28-.65l0,0,.58-1.63.55-1.54,0,0a.58.58,0,0,0-.73.29l-.57,1.61-.58,1.63,0,0a.54.54,0,0,0,.28.65l1.4.79a.58.58,0,0,0,.73-.3l0-.06Z" transform="translate(-207.61 -7.61)"/><path class="cls-46" d="M357.08,123.32l-.61,1.72-.11.31-.3.83-.13.36a.58.58,0,0,1-.73.3l-1.4-.79a.54.54,0,0,1-.28-.65l0,0,.58-1.64h0l.57-1.61a.58.58,0,0,1,.73-.29l.1.06.07,0,1.24.68a.57.57,0,0,1,.25.72Z" transform="translate(-207.61 -7.61)"/><path class="cls-39" d="M354.59,125.71a.54.54,0,0,1-.28-.65l0,0,.58-1.63.55-1.54,0,0a.58.58,0,0,0-.73.29l-.57,1.61-.58,1.64,0,0a.54.54,0,0,0,.28.65l1.4.79a.58.58,0,0,0,.73-.3l0-.06Z" transform="translate(-207.61 -7.61)"/><path class="cls-46" d="M343.53,127.77l-.1,1.29,0,.23-.05.63,0,.27c0,.2-.32.3-.54.18l-1.33-.71a.63.63,0,0,1-.38-.53v0l.1-1.23h0l.1-1.21c0-.19.31-.29.53-.17l.1,0,.06,0,1.17.62a.74.74,0,0,1,.28.24A.52.52,0,0,1,343.53,127.77Z" transform="translate(-207.61 -7.61)"/><path class="cls-39" d="M342,129.45a.63.63,0,0,1-.38-.53v0l.1-1.23.09-1.16h0c-.22-.12-.52,0-.53.17l-.1,1.21-.1,1.23v0a.63.63,0,0,0,.38.53l1.33.71c.22.12.52,0,.54-.18v0Z" transform="translate(-207.61 -7.61)"/><path class="cls-46" d="M282.83,93.93l.12,1.38,0,.24.06.67,0,.29c0,.21-.23.32-.44.19l-1.3-.75a.82.82,0,0,1-.42-.57v0L280.77,94h0l-.11-1.29c0-.2.23-.31.45-.18l.09.05.06,0,1.14.65a1.41,1.41,0,0,1,.29.25A.81.81,0,0,1,282.83,93.93Z" transform="translate(-207.61 -7.61)"/><path class="cls-39" d="M281.78,95.72a.81.81,0,0,1-.42-.56v0l-.12-1.31-.1-1.24h0c-.22-.13-.47,0-.45.18l.11,1.29.12,1.31v0a.82.82,0,0,0,.42.57l1.3.75c.21.13.46,0,.44-.19v-.05Z" transform="translate(-207.61 -7.61)"/><path class="cls-46" d="M333.28,110.43l-.61,1.72-.11.31-.29.83-.13.36a.58.58,0,0,1-.74.3l-1.4-.79a.55.55,0,0,1-.28-.65l0,0,.58-1.63h0l.57-1.62a.59.59,0,0,1,.74-.29l.1.06.07,0,1.23.68a.69.69,0,0,1,.26.28A.61.61,0,0,1,333.28,110.43Z" transform="translate(-207.61 -7.61)"/><path class="cls-39" d="M330.79,112.82a.54.54,0,0,1-.27-.65v0l.58-1.64.55-1.54,0,0a.59.59,0,0,0-.74.29l-.57,1.62-.58,1.63,0,0a.55.55,0,0,0,.28.65l1.4.79a.58.58,0,0,0,.74-.3l0-.06Z" transform="translate(-207.61 -7.61)"/><polygon class="cls-22" points="169.09 131.27 168.45 131.36 169.52 124.88 170.17 125.06 169.09 131.27"/><polygon class="cls-22" points="178.89 130.3 175.03 126.05 175.57 125.76 179.59 130.3 178.89 130.3"/><polygon class="cls-22" points="174.22 129.87 173.76 125.86 174.28 125.94 174.78 129.92 174.22 129.87"/><polygon class="cls-47" points="178.52 124.45 176.89 125.28 180.25 127.61 180.84 127.27 178.52 124.45"/></g></g></svg>