<svg xmlns="http://www.w3.org/2000/svg" xmlns:xlink="http://www.w3.org/1999/xlink" viewBox="0 0 132.35 132.94"><defs><style>.cls-1{fill:none;}.cls-2{isolation:isolate;}.cls-3{fill:#a9a9ab;}.cls-19,.cls-3{mix-blend-mode:multiply;}.cls-4{fill:#8d8a88;}.cls-5{fill:#bbb8b5;}.cls-6{fill:#9c9a99;}.cls-7{fill:#666360;}.cls-8{fill:#e7e5e3;}.cls-9{fill:#b8b6b4;}.cls-10{fill:#7c776a;}.cls-11{fill:url(#Áåçûìÿííûé_ãðàäèåíò_999);}.cls-12{fill:url(#Áåçûìÿííûé_ãðàäèåíò_1004);}.cls-13{fill:#6a6b6b;}.cls-14{fill:#7fbad6;}.cls-15{fill:#2d332d;mix-blend-mode:screen;}.cls-16{fill:#484949;}.cls-17{fill:#f1f1f1;}.cls-18{fill:#e6e1e4;}.cls-19{fill:#8b908c;}.cls-20{clip-path:url(#clip-path);}.cls-21{fill:#dd4026;}.cls-22{fill:#ae1f00;}.cls-23{fill:#ff5236;}.cls-24{fill:#f9c48e;}.cls-25{fill:#e09c63;}.cls-26{fill:#d18361;}.cls-27{fill:#d9af6a;}.cls-28{fill:#b37240;}.cls-29{fill:#b76f3f;}.cls-30{fill:#9c480c;}.cls-31{fill:#b3a4ad;}.cls-32{fill:#efd995;}.cls-33{fill:#ffedb4;}.cls-34{fill:#904c28;}.cls-35{fill:#ffe7c9;}.cls-36{fill:#ffd0a1;}.cls-37{fill:#ffe1c9;}.cls-38{fill:#970900;}.cls-39{fill:#ab774d;}.cls-40{fill:#c39055;}.cls-41{fill:#f9f9f9;}.cls-42{fill:#d6d6d6;}.cls-43{fill:#fefefe;}.cls-44{fill:#8b8b8b;}.cls-45{fill:#6f6f6f;}.cls-46{fill:#8e8e8e;}</style><linearGradient id="Áåçûìÿííûé_ãðàäèåíò_999" x1="194.78" y1="419.47" x2="261.37" y2="304.14" gradientUnits="userSpaceOnUse"><stop offset="0" stop-color="#7e7a76"/><stop offset="0.01" stop-color="#807c78"/><stop offset="0.02" stop-color="#86827f"/><stop offset="0.02" stop-color="#918e8a"/><stop offset="0.02" stop-color="#a19e9b"/><stop offset="0.02" stop-color="#a6a3a0"/><stop offset="0.41" stop-color="#a6a3a0"/><stop offset="0.42" stop-color="#afaca9"/><stop offset="0.43" stop-color="#bfbdba"/><stop offset="0.44" stop-color="#cbc8c5"/><stop offset="0.45" stop-color="#d1cfcc"/><stop offset="0.5" stop-color="#d3d1ce"/><stop offset="0.5" stop-color="#d1cfcc"/><stop offset="0.5" stop-color="#cccac5"/><stop offset="0.62" stop-color="#d9d7d5"/><stop offset="0.63" stop-color="#e8e6e4"/><stop offset="0.84" stop-color="#e8e8e6"/><stop offset="0.96" stop-color="#e8e8e6"/><stop offset="0.98" stop-color="#e8e8e6"/><stop offset="0.99" stop-color="#e8e6e4"/></linearGradient><linearGradient id="Áåçûìÿííûé_ãðàäèåíò_1004" x1="180.36" y1="411.14" x2="246.45" y2="296.66" gradientUnits="userSpaceOnUse"><stop offset="0" stop-color="#666360"/><stop offset="0.01" stop-color="#686562"/><stop offset="0.02" stop-color="#6e6b69"/><stop offset="0.02" stop-color="#7a7774"/><stop offset="0.02" stop-color="#8a8785"/><stop offset="0.02" stop-color="#8e8b89"/><stop offset="0.41" stop-color="#8e8b89"/><stop offset="0.42" stop-color="#979492"/><stop offset="0.43" stop-color="#a7a5a3"/><stop offset="0.44" stop-color="#b3b0ae"/><stop offset="0.45" stop-color="#b9b7b5"/><stop offset="0.5" stop-color="#bbb9b7"/><stop offset="0.5" stop-color="#b9b7b5"/><stop offset="0.5" stop-color="#b4b2ae"/><stop offset="0.62" stop-color="#c1bfbd"/><stop offset="0.63" stop-color="#d0cecc"/><stop offset="0.84" stop-color="#d0d0ce"/><stop offset="0.96" stop-color="#d0d0ce"/><stop offset="0.98" stop-color="#d0d0ce"/><stop offset="0.99" stop-color="#d0cecc"/></linearGradient><clipPath id="clip-path" transform="translate(-180.64 -304.46)"><path class="cls-1" d="M219.92,367.3s-4.74-5-9.68,2-5,14.21-2.22,17.6,59,25.34,66.62,22.34c5.32-2.08,11.85-6.26,29.06-16.51,5.07-3,14.67.91,9.34-30-1.74-10.06-59.69-25.63-59.69-25.63s-6.31-.37-8.81,5c-2.81,6-4.6,10.54-1.06,16.29,3,4.91-.46,6.6-.46,6.6Z"/></clipPath></defs><title>sasa</title><g class="cls-2"><g id="Layer_1" data-name="Layer 1"><path class="cls-3" d="M262.72,396.65l-50.85,28.87-21.6,11.87a34.14,34.14,0,0,1-7.8-4.19c-3.35-2.26,5.9-10,7.13-11.13l-9-12.17c21.82-12.22,51.07-28.3,51.07-28.3Z" transform="translate(-180.64 -304.46)"/><polygon class="cls-4" points="14.39 113.39 14.39 115.51 4.92 99.37 6.29 98.47 33.42 82.91 14.39 113.39"/><polygon class="cls-4" points="6.6 99.21 4.92 99.37 11.33 77.93 39.84 61.47 6.6 99.21"/><polygon class="cls-5" points="42.89 96.94 14.39 113.39 6.6 99.21 34.8 82.01 42.89 96.94"/><polygon class="cls-6" points="52.13 102.27 42.89 96.94 13.79 92.2 10.33 96.94 15.03 114.31 24.33 119.17 52.13 102.27"/><path class="cls-4" d="M245.93,416v.71a5.64,5.64,0,0,1-2.84,4.9l-15.57,8.88a14.41,14.41,0,0,1-14.36,0l-5-2.87h0L195,420v-2.12l2.36-.09Z" transform="translate(-180.64 -304.46)"/><path class="cls-7" d="M208.17,425.52v2h0L195,420v-2.12l2.36-.09C201.55,420.74,208.17,425.52,208.17,425.52Z" transform="translate(-180.64 -304.46)"/><path class="cls-8" d="M244.48,418.51l-18,10.41a12.26,12.26,0,0,1-12.26,0L195,417.85l28.51-16.46,20.94,12.1A2.89,2.89,0,0,1,244.48,418.51Z" transform="translate(-180.64 -304.46)"/><polygon class="cls-9" points="56.2 104.62 27.53 121.07 14.39 113.39 42.89 96.94 56.2 104.62"/><polygon class="cls-10" points="34.8 82.01 6.6 99.21 12.41 80.21 40.91 63.75 34.8 82.01"/><path class="cls-11" d="M256.68,305.28,194.78,341c-3.24,1.87-5.54,7.45-5.14,12.46l1.71,59c.35,5.56,1.4,6,4.31,7.39l5.1,2.49,58.9-36.79c3.23-1.87,5.53-7.45,5.13-12.46l-2-68.18a20.59,20.59,0,0,0-3.72-.46A5.46,5.46,0,0,0,256.68,305.28Z" transform="translate(-180.64 -304.46)"/><path class="cls-12" d="M196.89,419.87c-2.91-1.42-4-1.83-4.32-7.39l-1.7-59c-.4-5,1.9-10.59,5.14-12.46l61.9-35.74a5.63,5.63,0,0,1,2.11-.78,4.94,4.94,0,0,0-1,0,5.46,5.46,0,0,0-2.35.81L194.78,341c-3.24,1.87-5.54,7.45-5.14,12.46l1.71,59c.35,5.56,1.4,6,4.31,7.39l5.1,2.49.54-.33Z" transform="translate(-180.64 -304.46)"/><path class="cls-13" d="M266,386.28,204.14,422c-3.23,1.88-6.19-.68-6.58-5.69l-.41-5.3-4.35-57.38c-.41-5,1.89-10.6,5.13-12.47l9.38-5.42L252.1,309.9l7.72-4.46c3.24-1.87,6.19.68,6.6,5.69l.29,3.8,4.47,58.89C271.58,378.83,269.28,384.41,266,386.28Z" transform="translate(-180.64 -304.46)"/><polygon class="cls-14" points="81.6 5.72 16.63 43.23 20.97 100.71 85.94 63.19 81.6 5.72"/><polygon class="cls-15" points="44.71 21.6 35.07 95.36 51.02 86.15 60.66 12.39 44.71 21.6"/><path class="cls-15" d="M207.31,336.71l-9.22,70.55-.33.19-4.09-53.93c-.38-4.71,1.78-10,4.82-11.72Z" transform="translate(-180.64 -304.46)"/><path class="cls-15" d="M265.83,315.58,258.07,375l-15.95,9.21,9.6-73.45,7.46-4.31c3.13-1.81,6,.66,6.37,5.5Z" transform="translate(-180.64 -304.46)"/><polygon class="cls-16" points="81.6 5.72 81.08 6.02 85.37 62.71 20.91 99.92 20.97 100.71 85.94 63.19 81.6 5.72"/><path class="cls-17" d="M266,386.28l-.49.29-13.86,8-7.94,4.59-14.4,8.32L223,411.12l-14.22,8.21L204.14,422c-3.23,1.88-6.18-.67-6.59-5.69l-.39-4.94,14.11-8.15,14.92-8.62,5.63-3.25,15.11-8.72,7.23-4.17,14.57-8.41,2-1.19.4,4.95C271.58,378.83,269.28,384.41,266,386.28Z" transform="translate(-180.64 -304.46)"/><polygon class="cls-18" points="47.18 90.17 44.42 104.53 32.04 111.68 34.2 97.67 47.18 90.17"/><polygon class="cls-18" points="84.2 68.8 81.43 83.17 69.37 90.13 71.52 76.12 84.2 68.8"/><path class="cls-19" d="M207,383.89c-.44.36,6.26,8.08,9.1,10.69s13.25,12.89,13.25,12.89l15.53-9s1-4.49-4.89-7.34-18.43-16.91-18.43-16.91l25.9,12.22L255,373.53l-1.3,2.24-11.06-18.92s5.81-11,10.26-9.3,13.36,12.27,13.48,14.63-20,31.16-20,31.16S215.77,376.74,207,383.89Z" transform="translate(-180.64 -304.46)"/><g class="cls-20"><path class="cls-21" d="M240.06,355.2s4.91,3.38,6.48,3.53,4.56,3,5.19,3.35c.44.22,3.41,2.21,5.1,3.36l1.19.8s27.74-10.57,24.52-12.77c-2.08-1.42-6.26-3.39-9.49-5.05l-.09-.05a23.15,23.15,0,0,1-3.86-2.29,4.45,4.45,0,0,0-3.32-1.18,2.83,2.83,0,0,0-.46.08l-.74-.48h0a14.07,14.07,0,0,0-2.61-1.4c-.77-.16-1.75-2.28-1.75-2.28-1.65-1.21-2.57-2-4.12-2-2,0-5.2-5.41-6.93-4.09a8,8,0,0,0-.77.68,19.24,19.24,0,0,0-3.54,5.27h0c-.61,1.26-1.17,2.58-1.68,3.91A79.88,79.88,0,0,0,240.06,355.2Z" transform="translate(-180.64 -304.46)"/><path class="cls-22" d="M270.12,349.26s-5.7,3.78-8.16,7.16a24.55,24.55,0,0,0-3.32,6s5.07-6.51,6.65-8.27S270.12,349.26,270.12,349.26Z" transform="translate(-180.64 -304.46)"/><path class="cls-22" d="M257,354s-3.61,3.38-4.6,4.08a5.79,5.79,0,0,1-2.63.79,16.73,16.73,0,0,1,2.52-3.05A30.44,30.44,0,0,1,257,354Z" transform="translate(-180.64 -304.46)"/><path class="cls-22" d="M259.39,355.84s-.63-2.23,0-3.17,3.38-4.31,5-5,2.59-1.72,4.1-1.35l1.51.38a7.32,7.32,0,0,1-2.33.92c-.74,0-2-.32-2.87.24A8.84,8.84,0,0,0,262.5,350c-.48.74-.64,2.27-1.07,3.12A22.49,22.49,0,0,1,259.39,355.84Z" transform="translate(-180.64 -304.46)"/><path class="cls-22" d="M258.29,342.5c.75.87,2.55.51,3.13.51s1.19.79,1.19.79a5.33,5.33,0,0,0-3.5,1.14c-1.81,1.34-1.45,4.95-1.45,4.95s1.5-1.1,1.6-1.65a5,5,0,0,1,1.86-2.71c.94-.47,2.71.2,3.26,0a6.13,6.13,0,0,0,.94-.51,20.67,20.67,0,0,0-3.35-1.89c-.77-.16-1.75-2.28-1.75-2.28a8,8,0,0,0-4.82-1.71,8.81,8.81,0,0,1,1.08.57,5.23,5.23,0,0,1,1.15.43C258.23,340.42,257.54,341.64,258.29,342.5Z" transform="translate(-180.64 -304.46)"/><path class="cls-23" d="M242.86,351.62c.18,0,4.54,3.42,5.93,3.83s2.68.91,5.39-1.43,5.31-4.13,5.31-4.13-2.67,3-2.46,4.91-.67,3.3-1.26,3.42-2.56.93-3.53.67-.87.26-2.44,0l-1.57-.25a17.92,17.92,0,0,0,3.6,1.29c.94.06,2.59-.47,3.06.47a5.34,5.34,0,0,0,3.13,2c.62,0,1.47,1.53,1.47,1.53s-.34-4.38-.38-5.05,1.26-1.73,2.32-2.44,3.36-4,4.66-4.95,3.24-2.24,3.24-2.24a21.06,21.06,0,0,0-4.78,1.79,6.54,6.54,0,0,0-1.94,2s.06-1.89,1-2.54,2.59-1.89,3.12-1.89h.53s-2.24-.73-3.65.65-2.19,4.76-2.19,4.76-1.81,2.55-2.32,2.43-.84-3.32-.47-3.78,2.79-3.94,2.79-3.94a11.32,11.32,0,0,0-3.77,1.16c-1.77,1-4.42,3.87-5.48,4.13s-2.83.78-4-.75S242.86,351.62,242.86,351.62Z" transform="translate(-180.64 -304.46)"/><path class="cls-23" d="M251.37,343.68a9.79,9.79,0,0,1,3.89-.81c.43,0,.83-.14.84-.56,0-.95.48-2.24.93-1.24s.57,1.88,1.1,2.12-.11,1.24-.7,2.71-1.1,3.66-2,4.54-2.87,3.46-3,.61.65-3.83.48-4.78-1.95-1.88-1.95.26.35,5.62-.35,5.83-5.19-.37-5.54-2,2.24-3.55,2.35-3.85A10.64,10.64,0,0,1,251.37,343.68Z" transform="translate(-180.64 -304.46)"/><path class="cls-22" d="M265.78,344.9a4.51,4.51,0,0,1,.88.43c.85.59,5.54,2.69,6.3,3a23.15,23.15,0,0,1-3.86-2.29A4.45,4.45,0,0,0,265.78,344.9Z" transform="translate(-180.64 -304.46)"/><path class="cls-22" d="M257,339.84a60.73,60.73,0,0,0,5.32,3.67,8.94,8.94,0,0,0,2.23,1,14.07,14.07,0,0,0-2.61-1.4c-.77-.16-1.75-2.28-1.75-2.28-1.65-1.21-2.57-2-4.12-2-2,0-5.2-5.41-6.93-4.09a6.81,6.81,0,0,0,2.5,3.62l1.86,1.18,1.07.35S256.16,339,257,339.84Z" transform="translate(-180.64 -304.46)"/><path class="cls-22" d="M240.06,355.2s4.91,3.38,6.48,3.53,4.56,3,5.19,3.35c.44.22,8,5.41,9.7,6.55.9-.05-3.17-3.3-3.17-3.3a22.48,22.48,0,0,0-5.35-4.63c-2.08-1-6.36-1.65-7.9-3.07a22.51,22.51,0,0,0-3.42-2.51s1.06-4.09,1.28-5.23,1.26-6.3,2-9.18A71.86,71.86,0,0,0,240.06,355.2Z" transform="translate(-180.64 -304.46)"/><path class="cls-22" d="M242.68,347.76a17.61,17.61,0,0,0,3.5-1.52c2.53-1.32,2.7-1.35,2.7-1.35a27.32,27.32,0,0,1-4.84,3.53c-2,.93-2.55,1.23-2.55,1.23Z" transform="translate(-180.64 -304.46)"/><path class="cls-22" d="M252.06,342.54a24.53,24.53,0,0,1,3.16-2.21l1.26-.66,1.15.43A21.73,21.73,0,0,0,254,342,3,3,0,0,1,252.06,342.54Z" transform="translate(-180.64 -304.46)"/><path class="cls-23" d="M253.92,340a51.32,51.32,0,0,0-5.63,3.71,25,25,0,0,1-4.92,2.89,7.61,7.61,0,0,0-.83.72c0,.08-1.15,1,.8.28a68.8,68.8,0,0,0,6.46-3.27l2.26-2,3.63-2.36S256.81,339.06,253.92,340Z" transform="translate(-180.64 -304.46)"/><path class="cls-23" d="M243.18,344.62a4.45,4.45,0,0,0,3.17-.94c1.18-1.23,6.3-4,6.3-4a9.45,9.45,0,0,1-1.77-1.19,9.81,9.81,0,0,1-1.71-3,2.49,2.49,0,0,0-.77-.08,19.24,19.24,0,0,0-3.54,5.27h0C244.25,342,243.69,343.29,243.18,344.62Z" transform="translate(-180.64 -304.46)"/><path class="cls-24" d="M310.34,373.81s2.54,5.45,2.62,6,0,4.77,0,4.77-1.42,1.38-1.48,1.51-1.16.69-1.59,0a2,2,0,0,1,0-1.82l.41-.46-.27-4.22Z" transform="translate(-180.64 -304.46)"/><path class="cls-25" d="M310,375.61v4l.27,4.22-.41.46a2,2,0,0,0-.14,1.52,2.19,2.19,0,0,1,.69-1.33c1.07-.8,1.05-1.35,1.05-1.35s.07-1.38.11-3.82C311.61,379,310.49,376.84,310,375.61Z" transform="translate(-180.64 -304.46)"/><path class="cls-26" d="M310.64,381.87a19.6,19.6,0,0,1-2.16,3,21.19,21.19,0,0,1-2.85,2c-.16,0-3,.19-3.87-.41S308.59,379.2,310.64,381.87Z" transform="translate(-180.64 -304.46)"/><polygon class="cls-27" points="129.71 56.18 129.71 78.28 92.84 100.29 92.84 76.92 129.71 56.18"/><polygon class="cls-28" points="92.84 100.29 129.71 78.28 129.71 77.73 92.84 99.74 92.84 100.29"/><polygon class="cls-29" points="66.52 62.89 66.49 86.45 92.84 100.29 92.84 76.92 66.52 62.89"/><polygon class="cls-30" points="75.49 89.38 75.49 67.57 80.37 70.38 80.37 92.46 75.49 89.38"/><polygon class="cls-31" points="75.08 89.18 75.08 67.38 79.95 70.19 79.95 92.27 75.08 89.18"/><polygon class="cls-32" points="103.51 41.38 66.52 62.89 92.84 76.92 129.71 56.18 103.51 41.38"/><polygon class="cls-33" points="127.45 56.18 92.93 75.51 66.52 62.89 92.84 76.92 129.71 56.18 103.51 41.38 127.45 56.18"/><path class="cls-34" d="M279.6,400.43s-1.55.22-2.19.37a33.25,33.25,0,0,1-3.69.09l-2.89-2.36-6.28-7.81s-1.62-3.86-1.45-4.33c.55-1.59,2.36-2.05,3-3,1-1.41,1.71-3,1.18-3.86-.33-.55-1.11-2.29-3.23-.39a21.73,21.73,0,0,1-6.88,4.42s-4.49-.09-5.73-.23a22.67,22.67,0,0,1-4.35-1.66v8.23s22.67,13.8,25.42,13.63S279.6,400.43,279.6,400.43Z" transform="translate(-180.64 -304.46)"/><path class="cls-22" d="M249.34,397.39s3.6,1.82,3.9-1.64,2.75-11.27-1.78-12l-5.53,3.62S246.12,395.77,249.34,397.39Z" transform="translate(-180.64 -304.46)"/><path class="cls-24" d="M244,394.17l4.3,1.25c4.3,1.27,10.67,6.8,12.28,7.47s3.3-.67,3.3-.67,6.37,4.36,7.67,4.16a24.31,24.31,0,0,0,3.37-1.22c1.5-.61,3.19-1.35,4.45-1.91,1.06-.47,1.81-.83,1.84-.87s.73-2-.51-2.13a3.1,3.1,0,0,0-1.51.3,5.85,5.85,0,0,1-1.73.65c-.67-.06-1.94.7-3,0h0c-1-.7-2.39-.68-3.5-1.8s-5.61-6.33-6.91-8.17a4,4,0,0,1-.27-.44h0a9,9,0,0,1-1.15-4.5c.05-.65,2.19-2.79,3.1-3.4s2.26-3.51,1.22-5.18c-.5-.81-1-.78-1.43-.46a11.5,11.5,0,0,0-1.24,1.34c-.65.63-3.35,2.3-4.8,3.4a5.2,5.2,0,0,1-3.77.9c-.63-.08-2.24,1.57-4,1.69a11.12,11.12,0,0,1-3.89-.7C241,383.28,244,394.17,244,394.17Z" transform="translate(-180.64 -304.46)"/><path class="cls-25" d="M274.92,405.16c-.75.31-1.45.59-2,.8a1.89,1.89,0,0,0-.94-1,39.05,39.05,0,0,1-4.26-2.49,28.06,28.06,0,0,1-3.7-2.77c-1-1-3.8-3.35-3.8-3.35l15.09,7,3.6-.78a1.87,1.87,0,0,0,1.43-.68,8.73,8.73,0,0,1,1.1-1.09,2.49,2.49,0,0,1-.2,1.53s-.78.4-1.84.87C278.11,403.81,276.42,404.55,274.92,405.16Z" transform="translate(-180.64 -304.46)"/><path class="cls-25" d="M246,384a4.65,4.65,0,0,1,1.85-.17,12.25,12.25,0,0,0,3.36.71,7.15,7.15,0,0,0-2.46,4.46,11.12,11.12,0,0,0,.86,6.37s1.94,1.12,3.36,2,6.08,4.1,6.81,4.68a2.87,2.87,0,0,0,2.19.76,4.3,4.3,0,0,0,1.09-.44c.2-.1.28-.12.13-.3a3.19,3.19,0,0,0-.5-.39l-.56-.41c-.27-.16-.56-.29-.83-.45a6,6,0,0,1-.95-.73c-.26-.24-.39-.56-.66-.79a9.51,9.51,0,0,0,1.83,1.27c.63.3,1.17.76,1.8,1.06s1.22.57,1.81.92c.82.48,1.55,1.12,2.36,1.62.34.21.69.4,1,.58.52.29,1.06.55,1.58.85a6.13,6.13,0,0,1,1.28.77c-1.57-.1-7.51-4.17-7.51-4.17s-1.69,1.33-3.3.67-8-6.2-12.28-7.47l-1.39-.4a5.8,5.8,0,0,1-.59-1.68A58,58,0,0,1,246,384Z" transform="translate(-180.64 -304.46)"/><path class="cls-24" d="M263.78,390.78h0l7,8.85,4.06,1.77a2.18,2.18,0,0,0,1.45.82c.78,0,2.45-.29,3,1a2.53,2.53,0,0,1,.14.44c.37,1.83-.37,2-1.31,2-.56,0-1.94-.3-3.28-.54-.92-.16-1.82-.31-2.41-.35-1.45-.09-4.42-2.47-5.6-3.06a16.14,16.14,0,0,1-3-2.36l-3.77-3S256.3,388.84,263.78,390.78Z" transform="translate(-180.64 -304.46)"/><path class="cls-1" d="M274.47,401.2h0Z" transform="translate(-180.64 -304.46)"/><path class="cls-25" d="M261,386.11a5.23,5.23,0,0,0,1.07,2.94,12.85,12.85,0,0,1,1.53,2.13l5.07,6.21,2.15,2.24L274,401.2l1.19.55a16.08,16.08,0,0,1,1.88-.24,7.81,7.81,0,0,0,2.08-1,5.85,5.85,0,0,1-1.73.65c-.67-.06-1.94.7-3,0h0c-1-.7-2.39-.68-3.5-1.8s-5.61-6.33-6.91-8.17a4,4,0,0,1-.27-.44h0a9,9,0,0,1-1.15-4.5c.05-.65,2.19-2.79,3.1-3.4s2.26-3.51,1.22-5.18c-.5-.81-1-.78-1.43-.46.67,0,1.6.31,1.15,2-.67,2.59-1.25,2.51-2.51,3.85S261,385.71,261,386.11Z" transform="translate(-180.64 -304.46)"/><path class="cls-25" d="M268.92,402.73c3,2.26,4.2,1.91,6,2.28s3.29.69,4-.43-.3-1.24-.65-1.59-2.83-.24-3.07-.62a9.73,9.73,0,0,0-1.45-1.34s0,0,0-.14l1.17.51a2.18,2.18,0,0,0,1.45.82c.78,0,2.45-.29,3,1a2.53,2.53,0,0,1,.14.44c.37,1.83-.37,2-1.31,2-.56,0-1.94-.3-3.28-.54-.92-.16-1.82-.31-2.41-.35-1.45-.09-4.42-2.47-5.6-3.06a16.14,16.14,0,0,1-3-2.36l-.69-.55h0S266.72,401.08,268.92,402.73Z" transform="translate(-180.64 -304.46)"/><path class="cls-35" d="M277.76,404.3s.82,0,1.12.28.19,1,.19,1-1.16.26-1.41,0A.94.94,0,0,1,277.76,404.3Z" transform="translate(-180.64 -304.46)"/><path class="cls-22" d="M232.17,377.89a.21.21,0,0,1,.1-.07C232.16,377.92,232.13,378,232.17,377.89Z" transform="translate(-180.64 -304.46)"/><path class="cls-36" d="M249.08,390a21.2,21.2,0,0,0,4,3.43c1.59.83,3.36,3.3,4.5,3.89a6.53,6.53,0,0,0,1.88.72c.26,0,.46.1.7-.07.43-.31.12-.51.14-1a.93.93,0,0,1,.66-.79c1.37-.45,2.36,1.08,3.17,1.93a13.59,13.59,0,0,0,3.31,2.84c2.3,1.2,3.4,1.89,3.41,1.32a10.3,10.3,0,0,0-2.55-4.19,28.82,28.82,0,0,1-4.36-4.94c-1-1.65-2.2-2.4-2.59-3.46s-3-2-2.68-3,1.07-.79,1.54-1.46a9.68,9.68,0,0,0,1.73-3c.14-.85-.91-1.3-.91-1.3s-2.37,2.72-4.36,2.58-3,1.68-4.44,1.58S249.85,386.47,249.08,390Z" transform="translate(-180.64 -304.46)"/><path class="cls-37" d="M263.61,379s-.44,1.16,0,1.32.52.09,1.1-.43,1-1.1,1-1.63a2,2,0,0,0-.29-.94S263.88,378.83,263.61,379Z" transform="translate(-180.64 -304.46)"/><path class="cls-21" d="M203.71,380.47c1.07,1.65,3.42,4.24,9.85,7.31s21.71,7.68,23.48,7.92a2.45,2.45,0,0,0,2.48-1.5l9.56,3.1.26.09-.62-1.05h0c-.63-1.07-1-2.52-.7-6.84a6.71,6.71,0,0,1,3.45-5.74h-1.17a18.11,18.11,0,0,1-3.82-.9h0a5.38,5.38,0,0,1-.9-1,22.57,22.57,0,0,0-3.15-3.06c-.94-.75-7.42-2.32-7.42-2.32a5.2,5.2,0,0,1-1.42-1.26c-.59-.78-3.69-.9-3.69-.9l-2.71-2.12s-2-1.85-3.42-3a4.59,4.59,0,0,0-3.34-.87L219,366.61c-1.69-.58-4.07-2.55-5.44-2.63-5.26-.3-7.3,4.41-8.78,7.82C203.16,375.53,203.22,379.7,203.71,380.47Z" transform="translate(-180.64 -304.46)"/><path class="cls-22" d="M213.56,364c.11.53.21,1,.46,1,.59,0,3.45,2.38,3.45,2.38l-.28.86a6.14,6.14,0,0,1,1.62-.31c.7,0,.11.47,1.8.71s1.53,1.18,1.53,1.18l-1.25-.08a5.45,5.45,0,0,0-2.52.59l1.69-.08a28.61,28.61,0,0,1,2.91,0s1.14.87,2.24,1.61,2.2,2.16,2,2.94.4.64,1,.4,1.67-.07,2.69-.35.75.86.75.86H229.5a1.15,1.15,0,0,0-1.26,1.38s.43-.12,1.73-.36,2.87-.43,3.14-.43a18.39,18.39,0,0,1,1.93.51l-1.22.23a3,3,0,0,0-1.55.84c.44-.23,2.28-.54,3.2-.79a3.9,3.9,0,0,1,2.44.63,16.89,16.89,0,0,0,3.14,1.06c1.22.19-.67.83-1.1,1.1s-.24,1.22.47,1,.59,1,1.93.71,4,1.25,4.12,1.33a5.38,5.38,0,0,1-.9-1,22.57,22.57,0,0,0-3.15-3.06c-.94-.75-7.42-2.32-7.42-2.32a5.2,5.2,0,0,1-1.42-1.26c-.59-.78-3.69-.9-3.69-.9l-2.71-2.12s-2-1.85-3.42-3a4.59,4.59,0,0,0-3.34-.87L219,366.61C217.31,366,214.93,364.06,213.56,364Z" transform="translate(-180.64 -304.46)"/><path class="cls-22" d="M203.71,380.47c1.07,1.65,3.42,4.24,9.85,7.31s21.71,7.68,23.48,7.92a2.45,2.45,0,0,0,2.48-1.5l9.82,3.19c-.26-.47-.58-1-.63-1.06s-2.63-1.05-4-1.47a33,33,0,0,1-4.59-1.66,21.13,21.13,0,0,1-3.39-2.74c-.86-.67-1.33,1.7-1.65,2.09a3.89,3.89,0,0,1-2.9.55c-.71-.31.86-1.73.86-2.64s-2.12.36-3.69,0c-1.16-.26-1.85-1.57-2.5-2.44-.27-.37-.57-.94-1.07-1-.33,0-.61.22-.92.29a2.32,2.32,0,0,1-.87,0,10.21,10.21,0,0,1-3.28-.82c-.81-.3-2.18-.55-2.66-1.35-.3-.5-.22-1.16-.54-1.65-.15-.23-.39-.41-.53-.64a1.85,1.85,0,0,1-.21-1.11,1,1,0,0,0,0-.35.3.3,0,0,0-.26-.22.3.3,0,0,0-.26.21.88.88,0,0,0,0,.36,9.42,9.42,0,0,1,.17,3.21,8.33,8.33,0,0,0-2,.17c-.37.12-.7.32-1.08.41s-.89-.06-.92-.44a.83.83,0,0,1,.11-.4c.18-.38.36-.76.53-1.14,0,0-.08,0-.07,0s.07,0,.08,0c.19-.85.37-1.69.56-2.54a5.22,5.22,0,0,0,.31-1.9,6.31,6.31,0,0,0-.4-1.83c-.2-.38-.32-.32-.49.09-.63,1.54-.39,2.55-1.22,2.28s-.43-.82-1.3-2.67.79-2.79,0-2.79-1.33,1.33-2,2.71-.24,2.87-.47,4.56-.63-.59-1.81-2.32-1.49-7.39-1.49-7.39C203.16,375.53,203.22,379.7,203.71,380.47Z" transform="translate(-180.64 -304.46)"/><path class="cls-38" d="M239.52,394.2s-2.36-2.26-2.18-5,.7-5.38,3.14-7.05a3.4,3.4,0,0,1,4.3-.12c.46.2,1.41.67,1.41.67s-1.84-2.64-4-2-4.55,1.37-5.5,7a7.06,7.06,0,0,0,2.59,7Z" transform="translate(-180.64 -304.46)"/><path class="cls-23" d="M214.42,369.33s3.17-1.19,4.27-1.07,3.22.79,1.69,1.07-4.29.62-5.31,1.65a12.72,12.72,0,0,0-1.84,2.55s3.36-2.64,3.84-2.64,4.07-.9,3.84-.31-2.5,2.28-2.89,2.56a15.76,15.76,0,0,0-1.57,1.84s3.64-1.68,4.47-2,.75.73.64,1.31-.2,1.91.11,1.87,2.44-2.76,3.07-1.87a2.59,2.59,0,0,1,.35,2.54c-.31.47,2.18-1.34,2.66-1.49a18.07,18.07,0,0,1,2.17-.35h.1a17.9,17.9,0,0,0-3.28,1.93,10.08,10.08,0,0,0-1,1.77,18,18,0,0,0,2.32-.82c.83-.4,4.28-.75,3,.11l-2.68,1.85s3.89-1.22,4.64-1.53,2.6.31,2.6.63-2.09,2.08-2.09,2.08l4.68-1.46,1.89-.51a6.88,6.88,0,0,1-1.26,1.58c-.87.82-3,3.27-3,3.27s-1.26,5.14-3.06,5.65-2.48.94-4.05-.4-2.6-4.32-3.54-4-2.59,2.08-2.55.76.59-3.36.47-3.36-.32-.78-.94.79-.75,2.28-.87,2.2-1.81-.25-1.92-1.6-1-.72-1.54-2.92-1-2.91-1.45-3-.47.95-1,1.85-1.3-1.26-1.3-1.85-1.18-2.36-1.26-2,0,2.71-.55,2.28-.86-4.17-1.53-4.44-1.38-1.81-2.83-1.93-1.69,1.34-1.73,3.18,1.45,4.68,1,4.84-2.16-5-1.85-6.21,0-2.87,1.62-4.44.47.16.7.82,1.1.44,1.5.12,2.16-2.12,3.06-2.28,3.38-.78,2.91,0S213.37,369.25,214.42,369.33Z" transform="translate(-180.64 -304.46)"/><path class="cls-21" d="M218.69,387.6a27.21,27.21,0,0,1,3.3,1.18c1.41.65,2.89.81,3.06.61a12.39,12.39,0,0,1,1.71-.86s1.76.17.68.86-1.19,1.07-1.19,1.07a6.34,6.34,0,0,0,2.81,1.25c1.18,0-.19.67-1.62.37s-1.88-1.64-3.34-1.62-4.59-1.74-5.82-1.86a18.7,18.7,0,0,1-5.19-1.83C212.62,386.36,215.5,387.12,218.69,387.6Z" transform="translate(-180.64 -304.46)"/></g><polygon class="cls-39" points="84.2 52.64 114.78 70.19 114.12 64.53 84.33 52.51 84.2 52.64"/><polygon class="cls-18" points="89.21 49.69 97.78 54.42 92.73 57.33 84.34 52.5 89.21 49.69"/><polygon class="cls-18" points="114.51 63.76 114.92 70.05 97.83 60.25 103.03 57.35 114.51 63.76"/><polygon class="cls-40" points="79.95 70.19 118.02 49 117.94 49.47 80.37 70.38 79.95 70.19"/><polygon class="cls-41" points="103.03 57.35 97.83 60.25 92.73 57.33 97.78 54.42 103.03 57.35"/><polygon class="cls-17" points="92.73 57.33 97.83 60.25 79.95 70.19 75.08 67.37 92.73 57.33"/><polygon class="cls-17" points="118.02 49 103.03 57.35 97.78 54.42 112.63 45.94 118.02 49"/><polygon class="cls-30" points="115.13 87.23 115.13 64.33 109.88 67.37 109.88 90.27 115.13 87.23"/><polygon class="cls-42" points="115.33 87.35 115.33 64.21 110.07 67.25 110.07 90.39 115.33 87.35"/><polygon class="cls-17" points="112 62.37 114.67 64.21 110.07 66.87 110.07 67.25 115.33 64.21 112 62.37"/><polygon class="cls-30" points="93.94 85.25 102.68 80.19 102.68 72.89 94.1 77.47 93.94 77.94 93.94 85.25"/><polygon class="cls-43" points="94.28 77.61 103.03 72.56 102.85 72.42 94.1 77.47 94.28 77.61"/><polygon class="cls-44" points="94.28 84.92 94.28 77.61 94.1 77.47 94.1 84.78 94.28 84.92"/><polygon class="cls-42" points="94.28 84.92 103.03 79.86 103.03 72.56 94.28 77.61 94.28 84.92"/><polygon class="cls-45" points="94.77 78.61 102.54 74.12 102.54 73.66 94.77 78.14 94.77 78.61"/><polygon class="cls-46" points="97.98 78.79 102.54 76.17 102.54 75.71 97.98 78.33 97.98 78.79"/><polygon class="cls-46" points="94.8 83.71 97.17 82.34 97.17 78.41 94.8 79.78 94.8 83.71"/><polygon class="cls-46" points="97.98 79.8 102.54 77.18 102.54 76.71 97.98 79.34 97.98 79.8"/><polygon class="cls-46" points="97.98 80.81 102.54 78.18 102.54 77.72 97.98 80.34 97.98 80.81"/><polygon class="cls-46" points="97.98 81.81 102.54 79.19 102.54 78.73 97.98 81.35 97.98 81.81"/></g></g></svg>